<svg width="1014" height="621" viewBox="0 0 1014 621" fill="none" xmlns="http://www.w3.org/2000/svg">
<path d="M910.542 6.13593C911.685 10.4037 909.153 14.7904 904.885 15.9339C900.617 17.0774 896.23 14.5448 895.087 10.277C893.943 6.00931 896.476 1.62261 900.744 0.479078C905.011 -0.664457 909.398 1.8682 910.542 6.13593ZM817.181 447.027L817.573 448.475L817.181 447.027ZM162.162 317.111L161.643 315.704L162.162 317.111ZM69.7325 620.156L52.417 620.572L60.7142 605.368L69.7325 620.156ZM903.937 7.21212C905.004 8.41713 906.074 9.63744 907.145 10.8727L904.879 12.8385C903.814 11.6109 902.751 10.3982 901.691 9.20085L903.937 7.21212ZM913.582 18.4464C915.652 20.9314 917.725 23.469 919.798 26.0564L917.456 27.9319C915.396 25.3594 913.335 22.8367 911.277 20.3663L913.582 18.4464ZM925.901 33.8253C927.901 36.4204 929.896 39.0597 931.884 41.7411L929.474 43.5277C927.497 40.8613 925.513 38.2368 923.525 35.6565L925.901 33.8253ZM937.667 49.6937C939.568 52.3598 941.459 55.063 943.336 57.8011L940.862 59.4975C938.995 56.7748 937.115 54.0868 935.224 51.4356L937.667 49.6937ZM948.847 66.0016C950.647 68.7351 952.431 71.4998 954.196 74.2938L951.659 75.8959C949.905 73.1181 948.131 70.3693 946.341 67.6515L948.847 66.0016ZM959.403 82.7167C961.098 85.5195 962.772 88.3488 964.422 91.2028L961.825 92.7043C960.185 89.8677 958.521 87.0554 956.836 84.2693L959.403 82.7167ZM969.283 99.8131C970.87 102.692 972.43 105.593 973.961 108.515L971.303 109.907C969.782 107.004 968.232 104.122 966.656 101.261L969.283 99.8131ZM978.451 117.319C979.915 120.268 981.347 123.237 982.744 126.222L980.027 127.494C978.64 124.53 977.218 121.582 975.764 118.652L978.451 117.319ZM986.829 135.225C988.155 138.243 989.444 141.277 990.692 144.324L987.916 145.461C986.677 142.438 985.399 139.427 984.082 136.431L986.829 135.225ZM994.323 153.524C995.494 156.611 996.622 159.711 997.704 162.82L994.871 163.806C993.798 160.724 992.679 157.65 991.518 154.588L994.323 153.524ZM1000.82 172.202C1001.81 175.358 1002.76 178.522 1003.65 181.693L1000.76 182.507C999.88 179.367 998.943 176.232 997.956 173.105L1000.82 172.202ZM1006.18 191.25C1006.97 194.466 1007.71 197.688 1008.39 200.912L1005.45 201.529C1004.78 198.339 1004.05 195.152 1003.27 191.968L1006.18 191.25ZM1010.24 210.638C1010.8 213.9 1011.3 217.163 1011.73 220.424L1008.75 220.815C1008.33 217.594 1007.84 214.37 1007.29 211.146L1010.24 210.638ZM1012.81 230.286C1013.11 233.583 1013.33 236.876 1013.47 240.165L1010.48 240.298C1010.33 237.055 1010.12 233.806 1009.83 230.552L1012.81 230.286ZM1013.68 250.087C1013.68 253.4 1013.59 256.706 1013.41 260.003L1010.42 259.846C1010.59 256.6 1010.68 253.344 1010.68 250.079L1013.68 250.087ZM1012.64 269.89C1012.29 273.184 1011.86 276.466 1011.34 279.734L1008.37 279.258C1008.89 276.046 1009.32 272.818 1009.66 269.577L1012.64 269.89ZM1009.48 289.487C1008.78 292.716 1007.97 295.93 1007.07 299.125L1004.18 298.311C1005.07 295.173 1005.86 292.017 1006.55 288.843L1009.48 289.487ZM1004.09 308.588C1003.01 311.709 1001.82 314.809 1000.54 317.887L997.769 316.73C999.032 313.709 1000.19 310.666 1001.26 307.602L1004.09 308.588ZM996.437 326.909C994.987 329.859 993.438 332.784 991.786 335.684L989.179 334.2C990.801 331.352 992.322 328.481 993.745 325.586L996.437 326.909ZM986.601 344.182C984.82 346.915 982.942 349.623 980.965 352.303L978.551 350.522C980.494 347.888 982.339 345.228 984.088 342.544L986.601 344.182ZM974.79 360.191C972.726 362.68 970.57 365.144 968.32 367.579L966.116 365.544C968.33 363.147 970.451 360.724 972.481 358.276L974.79 360.191ZM961.348 374.744C959.035 377.002 956.635 379.234 954.148 381.438L952.158 379.193C954.61 377.02 956.974 374.821 959.252 372.597L961.348 374.744ZM946.521 387.887C944.011 389.913 941.42 391.914 938.748 393.888L936.966 391.476C939.604 389.526 942.16 387.551 944.637 385.552L946.521 387.887ZM930.576 399.671C927.918 401.473 925.187 403.25 922.382 405.002L920.793 402.458C923.567 400.725 926.266 398.968 928.893 397.188L930.576 399.671ZM913.743 410.183C910.979 411.775 908.149 413.344 905.252 414.89L903.839 412.243C906.709 410.712 909.511 409.159 912.246 407.583L913.743 410.183ZM896.372 419.45C893.476 420.882 890.517 422.292 887.495 423.679L886.244 420.952C889.24 419.577 892.172 418.18 895.043 416.761L896.372 419.45ZM878.488 427.667C875.45 428.964 872.353 430.24 869.195 431.493L868.088 428.705C871.222 427.461 874.296 426.195 877.31 424.908L878.488 427.667ZM860.15 434.962C857.081 436.098 853.958 437.215 850.781 438.311L849.803 435.476C852.959 434.386 856.06 433.277 859.108 432.149L860.15 434.962ZM841.371 441.448C838.318 442.43 835.218 443.395 832.069 444.341L831.206 441.468C834.336 440.527 837.418 439.568 840.452 438.592L841.371 441.448ZM822.478 447.124C820.855 447.579 819.22 448.029 817.573 448.475L816.79 445.579C818.429 445.135 820.055 444.688 821.669 444.236L822.478 447.124ZM817.573 448.475C815.907 448.925 814.247 449.367 812.595 449.802L811.832 446.9C813.478 446.468 815.131 446.027 816.79 445.579L817.573 448.475ZM802.757 452.313C799.504 453.118 796.278 453.892 793.077 454.635L792.398 451.712C795.585 450.973 798.797 450.202 802.036 449.4L802.757 452.313ZM783.551 456.771C780.194 457.497 776.867 458.189 773.568 458.847L772.981 455.905C776.264 455.25 779.576 454.562 782.916 453.839L783.551 456.771ZM763.692 460.732C760.429 461.326 757.194 461.887 753.986 462.415L753.499 459.455C756.69 458.93 759.908 458.372 763.155 457.781L763.692 460.732ZM744.082 463.955C740.712 464.447 737.373 464.903 734.065 465.323L733.687 462.346C736.976 461.929 740.297 461.476 743.648 460.986L744.082 463.955ZM724.231 466.474C720.893 466.832 717.587 467.153 714.312 467.438L714.053 464.449C717.307 464.166 720.593 463.847 723.911 463.491L724.231 466.474ZM704.219 468.208C700.887 468.426 697.589 468.606 694.323 468.749L694.192 465.752C697.436 465.61 700.713 465.431 704.023 465.214L704.219 468.208ZM684.333 469.074C680.933 469.146 677.569 469.178 674.239 469.169L674.247 466.169C677.552 466.178 680.893 466.146 684.269 466.075L684.333 469.074ZM664.356 469.028C660.961 468.938 657.604 468.807 654.282 468.636L654.437 465.64C657.733 465.81 661.065 465.94 664.435 466.029L664.356 469.028ZM644.273 467.993C640.956 467.736 637.675 467.44 634.43 467.104L634.738 464.12C637.958 464.453 641.212 464.747 644.504 465.002L644.273 467.993ZM624.359 465.925C621.04 465.49 617.76 465.015 614.516 464.5L614.986 461.537C618.203 462.048 621.457 462.519 624.748 462.95L624.359 465.925ZM604.623 462.789C601.308 462.168 598.032 461.506 594.794 460.805L595.428 457.873C598.64 458.568 601.888 459.225 605.176 459.841L604.623 462.789ZM585.099 458.564C581.808 457.754 578.557 456.905 575.344 456.017L576.143 453.126C579.329 454.006 582.553 454.848 585.815 455.651L585.099 458.564ZM565.818 453.242C562.577 452.249 559.374 451.218 556.209 450.151L557.167 447.308C560.306 448.366 563.482 449.389 566.697 450.374L565.818 453.242ZM546.81 446.838C543.645 445.675 540.519 444.476 537.428 443.245L538.538 440.458C541.604 441.679 544.706 442.868 547.845 444.022L546.81 446.838ZM528.194 439.429C525.106 438.106 522.053 436.752 519.034 435.369L520.283 432.641C523.28 434.014 526.31 435.358 529.375 436.671L528.194 439.429ZM509.989 431.095C506.975 429.628 503.994 428.133 501.044 426.615L502.417 423.947C505.348 425.456 508.309 426.941 511.303 428.398L509.989 431.095ZM492.196 421.941C489.251 420.347 486.337 418.731 483.452 417.096L484.93 414.486C487.8 416.112 490.697 417.718 493.624 419.303L492.196 421.941ZM474.791 412.088C471.909 410.388 469.055 408.672 466.225 406.944L467.79 404.384C470.606 406.105 473.448 407.813 476.315 409.504L474.791 412.088ZM457.731 401.672C454.901 399.889 452.095 398.097 449.31 396.298L450.938 393.778C453.714 395.571 456.51 397.357 459.329 399.133L457.731 401.672ZM440.946 390.839C438.154 388.999 435.382 387.156 432.627 385.313L434.295 382.819C437.046 384.659 439.812 386.498 442.597 388.334L440.946 390.839ZM424.35 379.748C421.579 377.877 418.822 376.01 416.079 374.151L417.762 371.667C420.505 373.526 423.26 375.392 426.029 377.262L424.35 379.748ZM407.835 368.568C405.064 366.695 402.304 364.834 399.551 362.99L401.221 360.497C403.978 362.345 406.742 364.208 409.515 366.083L407.835 368.568ZM391.28 357.486C388.488 355.643 385.701 353.822 382.916 352.026L384.542 349.505C387.337 351.307 390.133 353.135 392.932 354.982L391.28 357.486ZM374.543 346.703C371.71 344.93 368.878 343.189 366.042 341.483L367.588 338.912C370.441 340.628 373.288 342.379 376.134 344.159L374.543 346.703ZM357.484 336.453C354.595 334.798 351.701 333.184 348.797 331.616L350.222 328.976C353.15 330.557 356.067 332.184 358.975 333.851L357.484 336.453ZM339.996 327.023C337.033 325.533 334.058 324.095 331.066 322.713L332.325 319.99C335.348 321.386 338.353 322.839 341.344 324.343L339.996 327.023ZM321.986 318.718C318.935 317.445 315.865 316.234 312.771 315.089L313.812 312.275C316.946 313.435 320.055 314.661 323.141 315.95L321.986 318.718ZM303.411 311.859C300.274 310.856 297.111 309.923 293.917 309.067L294.694 306.17C297.935 307.039 301.144 307.984 304.325 309.002L303.411 311.859ZM284.299 306.744C281.098 306.057 277.865 305.447 274.596 304.92L275.074 301.958C278.395 302.494 281.679 303.113 284.929 303.811L284.299 306.744ZM264.76 303.601C261.53 303.255 258.264 302.991 254.959 302.812L255.121 299.816C258.479 299.998 261.798 300.267 265.079 300.618L264.76 303.601ZM244.98 302.537C241.76 302.532 238.502 302.609 235.202 302.771L235.055 299.775C238.405 299.611 241.713 299.532 244.984 299.537L244.98 302.537ZM225.222 303.511C222.03 303.826 218.799 304.221 215.527 304.697L215.095 301.728C218.412 301.245 221.688 300.846 224.927 300.525L225.222 303.511ZM205.607 306.369C202.473 306.969 199.302 307.643 196.091 308.394L195.408 305.473C198.658 304.713 201.869 304.031 205.043 303.423L205.607 306.369ZM186.338 310.878C183.254 311.727 180.134 312.646 176.977 313.636L176.079 310.773C179.269 309.773 182.423 308.844 185.542 307.986L186.338 310.878ZM167.503 316.783C165.906 317.344 164.298 317.922 162.681 318.518L161.643 315.704C163.275 315.102 164.897 314.518 166.511 313.952L167.503 316.783ZM162.681 318.518C161.048 319.121 159.43 319.728 157.826 320.338L156.758 317.535C158.372 316.92 160 316.31 161.643 315.704L162.681 318.518ZM148.385 324.05C145.262 325.318 142.198 326.602 139.194 327.901L138.003 325.147C141.028 323.839 144.113 322.547 147.257 321.27L148.385 324.05ZM129.86 332.074C126.815 333.482 123.835 334.906 120.92 336.346L119.591 333.656C122.53 332.205 125.533 330.77 128.601 329.351L129.86 332.074ZM111.789 341.017C108.816 342.592 105.916 344.185 103.086 345.793L101.604 343.185C104.459 341.562 107.386 339.955 110.384 338.366L111.789 341.017ZM94.2815 350.99C91.4084 352.751 88.6154 354.529 85.901 356.323L84.2466 353.821C86.9902 352.007 89.8121 350.21 92.714 348.432L94.2815 350.99ZM77.5006 362.106C74.7417 364.084 72.0728 366.08 69.4917 368.092L67.6472 365.726C70.2605 363.689 72.9616 361.669 75.7524 359.668L77.5006 362.106ZM61.6688 374.466C59.0644 376.686 56.5609 378.923 54.1555 381.175L52.1049 378.985C54.545 376.7 57.0836 374.432 59.723 372.183L61.6688 374.466ZM47.0633 388.151C44.6701 390.627 42.3889 393.118 40.2165 395.624L37.9497 393.659C40.1583 391.111 42.4761 388.58 44.9065 386.066L47.0633 388.151ZM33.8586 403.392C31.7909 406.073 29.841 408.767 28.0047 411.472L25.5227 409.787C27.3933 407.031 29.3788 404.288 31.483 401.56L33.8586 403.392ZM22.6246 419.967C20.898 422.9 19.2981 425.842 17.8198 428.79L15.1381 427.445C16.6467 424.437 18.2788 421.436 20.0394 418.445L22.6246 419.967ZM13.6432 437.89C12.3423 441.008 11.1707 444.129 10.1226 447.248L7.27876 446.293C8.34947 443.106 9.54614 439.919 10.8746 436.735L13.6432 437.89ZM7.2834 456.832C6.44083 460.107 5.72823 463.377 5.13862 466.638L2.1865 466.104C2.78893 462.773 3.51705 459.431 4.37803 456.085L7.2834 456.832ZM3.71372 476.562C3.35593 479.911 3.12259 483.245 3.00608 486.559L0.00800208 486.454C0.126857 483.069 0.365245 479.664 0.730746 476.244L3.71372 476.562ZM3.00529 496.581C3.1218 499.942 3.35404 503.278 3.69399 506.581L0.709736 506.889C0.362951 503.519 0.125953 500.116 0.00705449 496.685L3.00529 496.581ZM5.04979 516.517C5.61368 519.834 6.28238 523.113 7.04699 526.347L4.12753 527.037C3.34854 523.742 2.66711 520.401 2.0922 517.02L5.04979 516.517ZM9.65868 536.034C10.6363 539.261 11.7061 542.434 12.8586 545.546L10.0453 546.588C8.87217 543.42 7.78298 540.19 6.78757 536.904L9.65868 536.034ZM16.6232 554.851C17.9846 557.948 19.4246 560.973 20.9326 563.919L18.2622 565.286C16.7276 562.288 15.2622 559.21 13.8767 556.058L16.6232 554.851ZM25.7725 572.717C27.5009 575.648 29.2928 578.481 31.1352 581.209L28.6493 582.888C26.7724 580.11 24.9478 577.224 23.1883 574.241L25.7725 572.717ZM37.0209 589.348C39.1214 592.061 41.2657 594.639 43.4372 597.069L41.2001 599.068C38.9804 596.584 36.7911 593.952 34.6487 591.184L37.0209 589.348ZM50.3987 604.273C52.9027 606.66 55.4178 608.842 57.9197 610.805L56.0682 613.165C53.4852 611.139 50.8976 608.893 48.3288 606.445L50.3987 604.273Z" fill="#EAEAEA"/>
</svg>
