<svg width="544" height="291" viewBox="0 0 544 291" fill="none" xmlns="http://www.w3.org/2000/svg">
<path d="M413.002 68.4848C418.947 90.6717 441.753 103.838 463.94 97.8934C486.127 91.9484 499.293 69.143 493.348 46.9561C487.403 24.7692 464.598 11.6025 442.411 17.5475C420.224 23.4925 407.057 46.2979 413.002 68.4848Z" fill="#3F3F3F" fill-opacity="0.5"/>
<rect width="295.29" height="106.055" rx="5.80298" transform="matrix(-0.965926 0.258819 0.258819 0.965926 378.527 28.2051)" fill="#3F3F3F" fill-opacity="0.5"/>
<rect width="390.947" height="112.293" rx="5.80298" transform="matrix(-0.965926 0.258819 0.258819 0.965926 411.896 152.742)" fill="#3F3F3F" fill-opacity="0.5"/>
<path d="M350.053 74.5859L151.197 127.869M358.664 106.724L244.018 137.444" stroke="#303030" stroke-width="7.7373" stroke-linecap="round"/>
<path d="M383.961 201.133L98.733 277.559M392.572 233.271L175.638 291.398" stroke="#303030" stroke-width="7.7373" stroke-linecap="round"/>
</svg>
