<svg width="92" height="93" viewBox="0 0 92 93" fill="none" xmlns="http://www.w3.org/2000/svg">
<path d="M28.75 14.3887H17.25C15.6622 14.3887 14.375 15.6759 14.375 17.2637V74.7637C14.375 76.3516 15.6622 77.6387 17.25 77.6387H28.75C30.3378 77.6387 31.625 76.3516 31.625 74.7637V17.2637C31.625 15.6759 30.3378 14.3887 28.75 14.3887Z" stroke="#FFB545" stroke-width="3" stroke-linecap="round" stroke-linejoin="round"/>
<path d="M14.375 28.7637H31.625" stroke="#FFB545" stroke-width="3" stroke-linecap="round" stroke-linejoin="round"/>
<path d="M46 14.3887H34.5C32.9122 14.3887 31.625 15.6759 31.625 17.2637V74.7637C31.625 76.3516 32.9122 77.6387 34.5 77.6387H46C47.5878 77.6387 48.875 76.3516 48.875 74.7637V17.2637C48.875 15.6759 47.5878 14.3887 46 14.3887Z" stroke="#FFB545" stroke-width="3" stroke-linecap="round" stroke-linejoin="round"/>
<path d="M31.625 63.2637H48.875" stroke="#FFB545" stroke-width="3" stroke-linecap="round" stroke-linejoin="round"/>
<path d="M63.0824 13.4481L51.9274 16.4381C50.3872 16.8509 49.4733 18.4342 49.8862 19.9744L64.8362 75.7494C65.249 77.2895 66.8322 78.2034 68.3724 77.7906L79.5274 74.8006C81.0676 74.3878 81.9815 72.8045 81.5687 71.2644L66.6187 15.4894C66.2058 13.9492 64.6226 13.0353 63.0824 13.4481Z" stroke="#FFB545" stroke-width="3" stroke-linecap="round" stroke-linejoin="round"/>
<path d="M61.5254 64.4141L78.2004 59.9219" stroke="#FFB545" stroke-width="3" stroke-linecap="round" stroke-linejoin="round"/>
<path d="M52.6133 31.0637L69.2883 26.6075" stroke="#FFB545" stroke-width="3" stroke-linecap="round" stroke-linejoin="round"/>
</svg>
