<svg width="92" height="93" viewBox="0 0 92 93" fill="none" xmlns="http://www.w3.org/2000/svg">
<path d="M25.7312 52.2464L11.5 63.7464V17.7464C11.5 16.9839 11.8029 16.2526 12.3421 15.7135C12.8812 15.1743 13.6125 14.8714 14.375 14.8714H60.375C61.1375 14.8714 61.8688 15.1743 62.4079 15.7135C62.9471 16.2526 63.25 16.9839 63.25 17.7464V49.3714C63.25 50.1339 62.9471 50.8652 62.4079 51.4043C61.8688 51.9435 61.1375 52.2464 60.375 52.2464H25.7312Z" stroke="#FFB545" stroke-width="3" stroke-linecap="round" stroke-linejoin="round"/>
<path d="M28.75 52.2464V66.6214C28.75 67.3839 29.0529 68.1152 29.5921 68.6543C30.1312 69.1935 30.8625 69.4964 31.625 69.4964H66.2687L80.5 80.9964V34.9964C80.5 34.2339 80.1971 33.5026 79.6579 32.9635C79.1188 32.4243 78.3875 32.1214 77.625 32.1214H63.25" stroke="#FFB545" stroke-width="3" stroke-linecap="round" stroke-linejoin="round"/>
</svg>
