<svg width="100" height="100" viewBox="0 0 100 100" fill="none" xmlns="http://www.w3.org/2000/svg">
<path d="M50 62.5071C58.6294 62.5071 65.625 55.5115 65.625 46.8821C65.625 38.2526 58.6294 31.2571 50 31.2571C41.3706 31.2571 34.375 38.2526 34.375 46.8821C34.375 55.5115 41.3706 62.5071 50 62.5071Z" stroke="#FFB545" stroke-width="3" stroke-miterlimit="10"/>
<path d="M24.9219 77.8981C27.2731 73.267 30.8608 69.3773 35.2873 66.6603C39.7138 63.9433 44.8062 62.5051 50 62.5051C55.1938 62.5051 60.2862 63.9433 64.7127 66.6603C69.1392 69.3773 72.7269 73.267 75.0781 77.8981" stroke="#FFB545" stroke-width="3" stroke-linecap="round" stroke-linejoin="round"/>
<path d="M78.125 28.1321C81.5768 28.1321 84.375 25.3339 84.375 21.8821C84.375 18.4303 81.5768 15.6321 78.125 15.6321C74.6732 15.6321 71.875 18.4303 71.875 21.8821C71.875 25.3339 74.6732 28.1321 78.125 28.1321Z" stroke="#FFB545" stroke-width="3" stroke-linecap="round" stroke-linejoin="round"/>
<path d="M78.125 15.6321V10.9446" stroke="#FFB545" stroke-width="3" stroke-linecap="round" stroke-linejoin="round"/>
<path d="M72.6953 18.7571L68.6719 16.4133" stroke="#FFB545" stroke-width="3" stroke-linecap="round" stroke-linejoin="round"/>
<path d="M72.6953 25.0071L68.6719 27.3508" stroke="#FFB545" stroke-width="3" stroke-linecap="round" stroke-linejoin="round"/>
<path d="M78.125 28.1321V32.8196" stroke="#FFB545" stroke-width="3" stroke-linecap="round" stroke-linejoin="round"/>
<path d="M83.5547 25.0071L87.5781 27.3508" stroke="#FFB545" stroke-width="3" stroke-linecap="round" stroke-linejoin="round"/>
<path d="M83.5547 18.7571L87.5781 16.4133" stroke="#FFB545" stroke-width="3" stroke-linecap="round" stroke-linejoin="round"/>
<path d="M87.2266 45.5156C87.4161 47.0054 87.5074 48.506 87.5 50.0078C87.5 57.4246 85.3007 64.6748 81.1801 70.8416C77.0596 77.0085 71.2029 81.815 64.3506 84.6532C57.4984 87.4915 49.9584 88.2342 42.6841 86.7872C35.4098 85.3403 28.728 81.7687 23.4835 76.5243C18.239 71.2798 14.6675 64.5979 13.2206 57.3236C11.7736 50.0494 12.5162 42.5094 15.3545 35.6571C18.1928 28.8049 22.9993 22.9482 29.1661 18.8276C35.333 14.7071 42.5832 12.5078 50 12.5078C51.1608 12.5004 52.3212 12.5526 53.4766 12.664" stroke="#FFB545" stroke-width="3" stroke-linecap="round" stroke-linejoin="round"/>
</svg>
