<svg width="698" height="537" viewBox="0 0 698 537" fill="none" xmlns="http://www.w3.org/2000/svg">
<rect width="698" height="537" rx="30" fill="#FFB545"/>
<circle cx="224" cy="323" r="103" fill="#FFC165"/>
<circle cx="478" cy="207" r="143" fill="#F7A934"/>
<path d="M485.986 131H85V115.788C85 110.943 88.7946 107 93.4879 107H477.512C482.191 107 486 110.929 486 115.788V131H485.986Z" fill="#4B48C8"/>
<rect x="97" y="113" width="91" height="12" rx="6" fill="#7C79FF"/>
<path d="M451.635 118.822C451.635 120.933 449.926 122.644 447.818 122.644C445.709 122.644 444 120.933 444 118.822C444 116.711 445.709 115 447.818 115C449.926 115 451.635 116.711 451.635 118.822Z" fill="white"/>
<path d="M464.725 118.822C464.725 120.933 463.016 122.644 460.908 122.644C458.799 122.644 457.09 120.933 457.09 118.822C457.09 116.711 458.799 115 460.908 115C463.016 115 464.725 116.711 464.725 118.822Z" fill="#E8F4FF"/>
<path d="M477.827 118.822C477.827 120.933 476.117 122.644 474.009 122.644C471.901 122.644 470.191 120.933 470.191 118.822C470.191 116.711 471.901 115 474.009 115C476.117 115 477.827 116.711 477.827 118.822Z" fill="#CEDFFD"/>
<path d="M85 131H486V346C486 352.627 480.627 358 474 358H97C90.3726 358 85 352.627 85 346V131Z" fill="#F7F7F7"/>
<rect x="116.5" y="145.5" width="317" height="15" rx="7.5" fill="#EBF2EC" stroke="#B0D9B4"/>
<path d="M452.678 157.127L450.428 154.877C451.702 152.896 451.472 150.225 449.737 148.497C447.741 146.501 444.493 146.501 442.497 148.497C440.501 150.493 440.501 153.741 442.497 155.737C444.232 157.472 446.896 157.702 448.877 156.428L451.127 158.678C451.557 159.107 452.248 159.107 452.678 158.678C453.107 158.248 453.107 157.549 452.678 157.127ZM443.764 154.463C442.466 153.165 442.466 151.054 443.764 149.756C445.061 148.459 447.173 148.459 448.47 149.756C449.768 151.054 449.768 153.165 448.47 154.463C447.173 155.768 445.061 155.768 443.764 154.463Z" fill="#D9D9D9"/>
<rect x="286" y="199" width="141" height="14" rx="7" fill="#E3E3E3"/>
<rect x="286" y="219" width="97" height="14" rx="7" fill="#E3E3E3"/>
<rect x="286" y="295" width="41" height="14" rx="7" fill="#4F4F4F"/>
<rect x="286" y="242" width="155" height="6" rx="3" fill="#EBEBEB"/>
<rect x="286" y="257" width="155" height="6" rx="3" fill="#EBEBEB"/>
<rect x="286" y="272" width="57" height="6" rx="3" fill="#EBEBEB"/>
<rect x="116" y="195" width="143" height="125" rx="6" fill="#EAEAEA"/>
<rect x="142" y="245" width="94" height="6" rx="3" fill="#D9D9D9"/>
<rect x="142" y="260" width="94" height="6" rx="3" fill="#D9D9D9"/>
<rect x="142" y="275" width="94" height="6" rx="3" fill="#D9D9D9"/>
<rect x="142" y="290" width="35" height="6" rx="3" fill="#D9D9D9"/>
<g clip-path="url(#clip0_1636_5730)">
<path d="M177.095 216.06C183.479 204.132 178.985 189.287 167.056 182.903C155.128 176.519 140.283 181.013 133.899 192.941C127.515 204.869 132.009 219.714 143.938 226.099C155.866 232.483 170.711 227.988 177.095 216.06Z" fill="#6CCB71"/>
<path d="M148.81 215.162L142.82 208.216C141.962 207.223 142.159 205.82 143.249 205.087C144.34 204.363 145.931 204.577 146.79 205.57L149.999 209.297C150.428 209.798 151.188 209.834 151.671 209.387L164.804 197.032C165.76 196.138 167.253 196.191 168.147 197.148C169.041 198.105 168.987 199.598 168.031 200.492L152.216 215.35C151.233 216.271 149.686 216.181 148.81 215.162Z" fill="white"/>
</g>
<path d="M392.812 474.812H589.999C595.421 474.812 599.811 470.416 599.811 464.985V226.828C599.811 221.397 595.421 217 589.999 217H392.812C387.39 217 383 221.397 383 226.828V464.985C383 470.416 387.39 474.812 392.812 474.812Z" fill="#DBDFFF"/>
<path d="M383 243.874H599.827V226.828C599.827 221.397 595.437 217 590.015 217H392.812C387.39 217 383 221.397 383 226.828V243.874Z" fill="#6252D7"/>
<path d="M437.777 231.34C437.777 234.752 440.529 237.509 443.936 237.509C447.343 237.509 450.095 234.752 450.095 231.34C450.095 227.927 447.343 225.171 443.936 225.171C440.529 225.171 437.777 227.944 437.777 231.34Z" fill="white"/>
<path d="M416.65 231.34C416.65 234.752 419.402 237.509 422.809 237.509C426.217 237.509 428.968 234.752 428.968 231.34C428.968 227.927 426.217 225.171 422.809 225.171C419.402 225.171 416.65 227.944 416.65 231.34Z" fill="#E8F4FF"/>
<path d="M395.533 231.34C395.533 234.752 398.285 237.509 401.692 237.509C405.099 237.509 407.851 234.752 407.851 231.34C407.851 227.927 405.099 225.171 401.692 225.171C398.285 225.171 395.533 227.944 395.533 231.34Z" fill="#B7C2FB"/>
<path d="M538.728 277.212H407.996V284.759H538.728V277.212Z" fill="white"/>
<path d="M565.509 277.212H550.062V284.759H565.509V277.212Z" fill="white"/>
<path d="M442.264 297.801H407.996V305.348H442.264V297.801Z" fill="white"/>
<path d="M512.075 297.801H464.195V305.348H512.075V297.801Z" fill="white"/>
<path d="M492.288 315.652H464.195V323.199H492.288V315.652Z" fill="white"/>
<path d="M521.083 315.652H501.787V323.199H521.083V315.652Z" fill="white"/>
<path d="M529.831 404.888H464.195V412.435H529.831V404.888Z" fill="white"/>
<path d="M492.288 333.502H464.195V341.049H492.288V333.502Z" fill="white"/>
<path d="M548.324 333.502H501.787V341.049H548.324V333.502Z" fill="white"/>
<path d="M442.264 351.337H407.996V358.884H442.264V351.337Z" fill="white"/>
<path d="M512.075 351.337H464.195V358.884H512.075V351.337Z" fill="white"/>
<path d="M492.288 369.187H464.195V376.734H492.288V369.187Z" fill="white"/>
<path d="M548.324 369.187H501.787V376.734H548.324V369.187Z" fill="white"/>
<path d="M492.288 387.038H464.195V394.585H492.288V387.038Z" fill="white"/>
<path d="M548.324 387.038H501.787V394.585H548.324V387.038Z" fill="white"/>
<path d="M492.288 440.572H464.195V448.119H492.288V440.572Z" fill="white"/>
<g filter="url(#filter0_d_1636_5730)">
<circle cx="607.812" cy="398.5" r="39.1875" fill="#EBEBEB"/>
<circle cx="607.812" cy="398.5" r="38.9375" stroke="#D6D6D6" stroke-width="0.5"/>
</g>
<path d="M625.989 393.339C625.989 401.283 619.55 407.722 611.605 407.722H601.204C598.51 407.722 596.311 405.543 596.311 402.829V383.849C596.311 381.134 598.51 378.955 601.204 378.955H611.586C619.55 378.955 625.989 385.394 625.989 393.339Z" fill="#625FFB"/>
<path d="M602.214 420.045H596.31C594.824 420.045 593.636 418.837 593.636 417.371V381.63C593.636 380.164 594.844 378.955 596.31 378.955H604.889V417.371C604.909 418.837 603.7 420.045 602.214 420.045Z" fill="#263238"/>
<path d="M619.51 393.854C619.51 388.267 614.696 383.75 608.752 383.75C602.808 383.75 597.994 388.267 597.994 393.854C597.994 399.441 602.808 403.958 608.752 403.958L608.732 406.93C614.874 405.721 619.51 400.59 619.51 394.448C619.51 394.23 619.51 394.012 619.49 393.794" fill="#FFB545"/>
<path d="M608.058 407.742L608.078 404.612C602.095 404.275 597.32 399.579 597.32 393.874C597.32 387.93 602.452 383.116 608.772 383.116C615.092 383.116 620.223 387.95 620.223 393.874H620.203C620.203 394.072 620.223 394.27 620.223 394.468C620.223 400.768 615.468 406.296 608.91 407.584L608.058 407.742ZM608.752 384.404C603.204 384.404 598.687 388.643 598.687 393.854C598.687 399.064 603.204 403.304 608.752 403.304H609.445L609.425 406.098C614.913 404.651 618.797 399.877 618.797 394.468C618.797 394.27 618.797 394.052 618.777 393.854H618.797C618.816 388.623 614.299 384.404 608.752 384.404Z" fill="white"/>
<path d="M604.354 395.716C605.087 395.716 605.681 395.122 605.681 394.389C605.681 393.656 605.087 393.062 604.354 393.062C603.621 393.062 603.026 393.656 603.026 394.389C603.026 395.122 603.621 395.716 604.354 395.716Z" fill="#625FFB"/>
<path d="M608.812 395.716C609.545 395.716 610.139 395.122 610.139 394.389C610.139 393.656 609.545 393.062 608.812 393.062C608.079 393.062 607.484 393.656 607.484 394.389C607.484 395.122 608.079 395.716 608.812 395.716Z" fill="#625FFB"/>
<path d="M613.249 395.716C613.982 395.716 614.577 395.122 614.577 394.389C614.577 393.656 613.982 393.062 613.249 393.062C612.516 393.062 611.922 393.656 611.922 394.389C611.922 395.122 612.516 395.716 613.249 395.716Z" fill="#625FFB"/>
<defs>
<filter id="filter0_d_1636_5730" x="563.625" y="359.312" width="88.375" height="90.375" filterUnits="userSpaceOnUse" color-interpolation-filters="sRGB">
<feFlood flood-opacity="0" result="BackgroundImageFix"/>
<feColorMatrix in="SourceAlpha" type="matrix" values="0 0 0 0 0 0 0 0 0 0 0 0 0 0 0 0 0 0 127 0" result="hardAlpha"/>
<feOffset dy="7"/>
<feGaussianBlur stdDeviation="2.5"/>
<feComposite in2="hardAlpha" operator="out"/>
<feColorMatrix type="matrix" values="0 0 0 0 0.595833 0 0 0 0 0.595833 0 0 0 0 0.595833 0 0 0 0.25 0"/>
<feBlend mode="normal" in2="BackgroundImageFix" result="effect1_dropShadow_1636_5730"/>
<feBlend mode="normal" in="SourceGraphic" in2="effect1_dropShadow_1636_5730" result="shape"/>
</filter>
<clipPath id="clip0_1636_5730">
<rect width="49" height="49" fill="white" transform="translate(131 180)"/>
</clipPath>
</defs>
</svg>
