<svg width="1193" height="702" viewBox="0 0 1193 702" fill="none" xmlns="http://www.w3.org/2000/svg">
<path d="M53.2546 87.2249C29.9292 47.2255 58.782 -3 105.086 -3H1193V702H607.074C486.13 702 374.291 637.752 313.365 533.274L53.2546 87.2249Z" fill="#F9F8FF"/>
<path d="M53.2546 87.2249C29.9292 47.2255 58.782 -3 105.086 -3H1193V702H607.074C486.13 702 374.291 637.752 313.365 533.274L53.2546 87.2249Z" fill="url(#paint0_linear_1636_6993)"/>
<mask id="mask0_1636_6993" style="mask-type:alpha" maskUnits="userSpaceOnUse" x="44" y="-3" width="1149" height="705">
<path d="M53.2546 87.2249C29.9292 47.2255 58.782 -3 105.086 -3H1193V702H607.074C486.13 702 374.291 637.752 313.365 533.274L53.2546 87.2249Z" fill="#F9F8FF"/>
</mask>
<g mask="url(#mask0_1636_6993)">
<ellipse cx="308.789" cy="355.495" rx="308.789" ry="355.495" transform="matrix(0.896328 -0.443392 0.316055 0.948741 326.414 -98.7188)" fill="url(#paint1_linear_1636_6993)" fill-opacity="0.44" style="mix-blend-mode:multiply"/>
<ellipse cx="323.646" cy="252.809" rx="323.646" ry="252.809" transform="matrix(0.211621 -0.977352 0.945947 0.324321 702.863 1050.72)" fill="url(#paint2_linear_1636_6993)" fill-opacity="0.42" style="mix-blend-mode:multiply"/>
</g>
<defs>
<linearGradient id="paint0_linear_1636_6993" x1="251.746" y1="-3.00003" x2="1274.64" y2="551.355" gradientUnits="userSpaceOnUse">
<stop stop-color="#684FFF"/>
<stop offset="1" stop-color="#B871FE"/>
</linearGradient>
<linearGradient id="paint1_linear_1636_6993" x1="308.789" y1="0" x2="308.789" y2="710.991" gradientUnits="userSpaceOnUse">
<stop stop-color="#684FFF"/>
<stop offset="1" stop-color="#FFF8F0" stop-opacity="0"/>
</linearGradient>
<linearGradient id="paint2_linear_1636_6993" x1="323.646" y1="0" x2="323.646" y2="505.618" gradientUnits="userSpaceOnUse">
<stop stop-color="#684FFF"/>
<stop offset="1" stop-color="#FFF8F0" stop-opacity="0"/>
</linearGradient>
</defs>
</svg>
