<svg width="1721" height="1066" viewBox="0 0 1721 1066" fill="none" xmlns="http://www.w3.org/2000/svg">
<path d="M250.365 117.615C249.221 121.883 251.754 126.27 256.022 127.413C260.289 128.557 264.676 126.024 265.82 121.756C266.963 117.489 264.43 113.102 260.163 111.958C255.895 110.815 251.508 113.347 250.365 117.615ZM383.255 761.076L382.864 762.524L383.255 761.076ZM1340.65 571.188L1341.17 569.781L1340.65 571.188ZM1475.75 1014.13L1493.05 1014.78L1484.96 999.463L1475.75 1014.13ZM256.969 118.691C255.893 119.906 254.816 121.132 253.737 122.368L255.997 124.341C257.071 123.11 258.144 121.89 259.215 120.68L256.969 118.691ZM247.247 129.908C245.112 132.423 242.974 134.978 240.834 137.57L243.147 139.48C245.279 136.898 247.408 134.354 249.534 131.85L247.247 129.908ZM234.566 145.265C232.49 147.849 230.414 150.466 228.34 153.117L230.703 154.966C232.769 152.325 234.837 149.718 236.904 147.145L234.566 145.265ZM222.291 160.954C220.277 163.597 218.268 166.271 216.263 168.973L218.673 170.76C220.669 168.068 222.672 165.405 224.677 162.772L222.291 160.954ZM210.418 176.96C208.479 179.645 206.547 182.356 204.623 185.093L207.078 186.818C208.994 184.092 210.919 181.391 212.85 178.717L210.418 176.96ZM198.953 193.271C197.088 195.997 195.232 198.748 193.387 201.521L195.885 203.182C197.723 200.42 199.571 197.681 201.429 194.964L198.953 193.271ZM187.908 209.875C186.117 212.645 184.337 215.436 182.571 218.248L185.112 219.844C186.871 217.043 188.643 214.263 190.427 211.504L187.908 209.875ZM177.315 226.741C175.594 229.564 173.888 232.406 172.197 235.265L174.78 236.792C176.463 233.944 178.163 231.114 179.877 228.303L177.315 226.741ZM167.186 243.876C165.537 246.756 163.905 249.652 162.292 252.564L164.916 254.018C166.523 251.119 168.148 248.235 169.79 245.367L167.186 243.876ZM157.532 261.303C155.965 264.232 154.417 267.175 152.89 270.132L155.556 271.508C157.076 268.564 158.617 265.635 160.177 262.719L157.532 261.303ZM148.389 279.013C146.911 281.985 145.455 284.971 144.023 287.969L146.729 289.262C148.155 286.279 149.604 283.307 151.075 280.349L148.389 279.013ZM139.797 296.996C138.413 300.016 137.054 303.047 135.721 306.089L138.469 307.293C139.795 304.267 141.147 301.251 142.524 298.246L139.797 296.996ZM131.801 315.246C130.518 318.315 129.263 321.395 128.036 324.483L130.824 325.591C132.044 322.519 133.293 319.456 134.569 316.402L131.801 315.246ZM124.443 333.776C123.272 336.889 122.131 340.011 121.023 343.139L123.85 344.142C124.953 341.031 126.087 337.928 127.251 334.832L124.443 333.776ZM117.783 352.574C116.736 355.726 115.722 358.884 114.742 362.047L117.608 362.935C118.581 359.791 119.589 356.653 120.63 353.52L117.783 352.574ZM111.888 371.626C110.972 374.824 110.093 378.027 109.252 381.234L112.154 381.995C112.99 378.81 113.863 375.629 114.772 372.452L111.888 371.626ZM106.832 390.914C106.062 394.157 105.331 397.403 104.642 400.651L107.576 401.274C108.26 398.05 108.986 394.827 109.751 391.607L106.832 390.914ZM102.697 410.415C102.086 413.7 101.519 416.985 100.997 420.271L103.96 420.742C104.478 417.483 105.04 414.223 105.647 410.963L102.697 410.415ZM99.5684 430.129C99.1351 433.44 98.7493 436.749 98.4125 440.057L101.397 440.361C101.731 437.082 102.113 433.801 102.543 430.518L99.5684 430.129ZM97.5487 450C97.3103 453.324 97.1229 456.644 96.9882 459.961L99.9857 460.082C100.119 456.797 100.305 453.508 100.541 450.215L97.5487 450ZM96.7432 469.955C96.7159 473.282 96.7434 476.605 96.8274 479.922L99.8264 479.846C99.7433 476.563 99.716 473.274 99.7431 469.98L96.7432 469.955ZM97.2542 489.918C97.4548 493.244 97.7141 496.562 98.0339 499.873L101.02 499.584C100.704 496.31 100.447 493.028 100.249 489.738L97.2542 489.918ZM99.1787 509.798C99.6225 513.101 100.129 516.394 100.699 519.678L103.655 519.164C103.091 515.919 102.591 512.664 102.152 509.399L99.1787 509.798ZM102.601 529.486C103.299 532.739 104.062 535.982 104.892 539.211L107.798 538.464C106.978 535.274 106.224 532.071 105.534 528.857L102.601 529.486ZM107.584 548.859C108.54 552.033 109.564 555.194 110.657 558.341L113.491 557.357C112.412 554.249 111.401 551.128 110.456 547.993L107.584 548.859ZM114.142 567.737C115.359 570.817 116.645 573.882 118.001 576.932L120.742 575.713C119.403 572.702 118.134 569.676 116.932 566.634L114.142 567.737ZM122.256 585.981C123.733 588.958 125.28 591.919 126.899 594.862L129.528 593.416C127.93 590.51 126.402 587.587 124.943 584.647L122.256 585.981ZM131.871 603.476C133.598 606.33 135.394 609.166 137.262 611.983L139.762 610.326C137.917 607.543 136.143 604.742 134.438 601.923L131.871 603.476ZM142.906 620.137C144.844 622.82 146.849 625.485 148.922 628.131L151.284 626.28C149.234 623.665 147.253 621.032 145.338 618.38L142.906 620.137ZM155.269 635.914C157.384 638.408 159.563 640.884 161.807 643.342L164.022 641.319C161.803 638.888 159.648 636.44 157.557 633.973L155.269 635.914ZM168.735 650.656C171.035 652.998 173.396 655.322 175.821 657.626L177.888 655.452C175.488 653.171 173.151 650.872 170.876 648.554L168.735 650.656ZM183.133 664.348C185.631 666.57 188.19 668.773 190.812 670.956L192.732 668.651C190.135 666.488 187.6 664.306 185.126 662.106L183.133 664.348ZM198.478 677.145C201.062 679.168 203.703 681.173 206.4 683.16L208.179 680.744C205.505 678.775 202.888 676.787 200.327 674.783L198.478 677.145ZM214.661 689.064C217.324 690.911 220.039 692.741 222.806 694.554L224.45 692.044C221.705 690.246 219.012 688.431 216.371 686.599L214.661 689.064ZM231.177 699.885C234.019 701.645 236.913 703.388 239.859 705.113L241.375 702.524C238.45 700.811 235.577 699.081 232.757 697.335L231.177 699.885ZM248.449 710.008C251.295 711.587 254.187 713.15 257.126 714.697L258.524 712.042C255.604 710.506 252.731 708.953 249.904 707.385L248.449 710.008ZM266.084 719.289C269.06 720.775 272.08 722.244 275.147 723.697L276.432 720.987C273.383 719.542 270.381 718.081 267.424 716.605L266.084 719.289ZM284.009 727.794C287.005 729.145 290.042 730.481 293.122 731.802L294.304 729.044C291.241 727.731 288.221 726.402 285.242 725.059L284.009 727.794ZM302.489 735.718C305.514 736.951 308.577 738.17 311.68 739.375L312.766 736.578C309.678 735.38 306.63 734.167 303.621 732.94L302.489 735.718ZM320.852 742.852C323.947 743.997 327.079 745.128 330.25 746.246L331.247 743.416C328.091 742.304 324.973 741.178 321.893 740.038L320.852 742.852ZM339.875 749.556C342.958 750.591 346.075 751.612 349.228 752.621L350.142 749.764C347.003 748.759 343.899 747.742 340.829 746.712L339.875 749.556ZM358.585 755.545C361.737 756.508 364.924 757.458 368.144 758.394L368.982 755.514C365.774 754.581 362.601 753.635 359.461 752.676L358.585 755.545ZM377.906 761.167C379.55 761.623 381.203 762.075 382.864 762.524L383.647 759.628C381.992 759.18 380.345 758.73 378.707 758.276L377.906 761.167ZM382.864 762.524C384.534 762.976 386.199 763.422 387.86 763.862L388.629 760.962C386.973 760.523 385.312 760.078 383.647 759.628L382.864 762.524ZM397.771 766.439C401.057 767.276 404.324 768.091 407.573 768.885L408.285 765.97C405.046 765.179 401.788 764.366 398.512 763.532L397.771 766.439ZM417.268 771.201C420.481 771.952 423.677 772.681 426.855 773.39L427.508 770.462C424.34 769.755 421.154 769.028 417.95 768.28L417.268 771.201ZM436.516 775.49C439.886 776.204 443.236 776.894 446.567 777.56L447.155 774.619C443.836 773.954 440.497 773.267 437.138 772.555L436.516 775.49ZM456.499 779.489C459.789 780.109 463.061 780.705 466.313 781.279L466.834 778.324C463.593 777.753 460.333 777.159 457.054 776.541L456.499 779.489ZM476.011 782.931C479.309 783.472 482.586 783.99 485.844 784.485L486.294 781.519C483.049 781.026 479.783 780.51 476.497 779.97L476.011 782.931ZM495.968 785.955C499.322 786.42 502.653 786.859 505.964 787.274L506.337 784.298C503.039 783.884 499.721 783.446 496.38 782.983L495.968 785.955ZM515.833 788.445C519.101 788.811 522.349 789.152 525.576 789.47L525.87 786.484C522.656 786.168 519.422 785.828 516.166 785.464L515.833 788.445ZM535.711 790.394C539.107 790.68 542.48 790.938 545.83 791.17L546.037 788.177C542.702 787.946 539.344 787.689 535.963 787.405L535.711 790.394ZM555.812 791.788C559.116 791.968 562.398 792.122 565.658 792.251L565.777 789.254C562.532 789.125 559.265 788.972 555.975 788.793L555.812 791.788ZM575.691 792.57C579.106 792.651 582.496 792.705 585.862 792.731L585.886 789.731C582.536 789.705 579.162 789.652 575.763 789.571L575.691 792.57ZM595.888 792.728C599.206 792.7 602.5 792.644 605.77 792.563L605.696 789.564C602.442 789.645 599.164 789.7 595.863 789.728L595.888 792.728ZM615.79 792.228C619.198 792.085 622.58 791.913 625.936 791.714L625.758 788.719C622.419 788.918 619.055 789.089 615.665 789.231L615.79 792.228ZM635.929 791.03C639.235 790.775 642.516 790.492 645.773 790.182L645.489 787.196C642.25 787.504 638.986 787.785 635.698 788.039L635.929 791.03ZM655.815 789.135C659.188 788.751 662.534 788.339 665.854 787.899L665.459 784.925C662.158 785.363 658.83 785.773 655.476 786.154L655.815 789.135ZM675.736 786.495C679.015 785.998 682.269 785.473 685.497 784.922L684.992 781.965C681.782 782.513 678.547 783.035 675.287 783.529L675.736 786.495ZM695.513 783.112C698.825 782.48 702.11 781.821 705.369 781.134L704.751 778.198C701.51 778.881 698.244 779.537 694.951 780.165L695.513 783.112ZM715.069 778.992C718.354 778.234 721.612 777.448 724.845 776.636L724.114 773.726C720.9 774.534 717.66 775.315 714.394 776.069L715.069 778.992ZM734.611 774.08C737.841 773.201 741.043 772.296 744.22 771.366L743.377 768.487C740.218 769.412 737.034 770.312 733.824 771.185L734.611 774.08ZM753.766 768.472C757 767.458 760.207 766.417 763.389 765.352L762.436 762.507C759.273 763.566 756.083 764.601 752.868 765.609L753.766 768.472ZM772.856 762.083C775.992 760.967 779.103 759.828 782.189 758.666L781.132 755.858C778.062 757.014 774.969 758.147 771.851 759.257L772.856 762.083ZM791.627 755.012C794.748 753.771 797.843 752.507 800.915 751.222L799.757 748.455C796.702 749.733 793.622 750.99 790.518 752.224L791.627 755.012ZM810.058 747.304C813.153 745.946 816.223 744.566 819.27 743.167L818.018 740.441C814.987 741.833 811.932 743.205 808.853 744.556L810.058 747.304ZM828.356 738.905C831.362 737.465 834.344 736.006 837.305 734.531L835.967 731.846C833.02 733.315 830.051 734.766 827.06 736.199L828.356 738.905ZM846.291 729.966C849.272 728.424 852.231 726.865 855.169 725.29L853.752 722.646C850.827 724.214 847.88 725.766 844.913 727.302L846.291 729.966ZM863.921 720.524C866.869 718.893 869.795 717.248 872.702 715.59L871.216 712.984C868.32 714.635 865.405 716.274 862.469 717.899L863.921 720.524ZM881.382 710.57C884.256 708.884 887.112 707.188 889.95 705.482L888.404 702.911C885.575 704.612 882.729 706.302 879.865 707.982L881.382 710.57ZM898.555 700.246C901.408 698.491 904.243 696.728 907.062 694.957L905.466 692.417C902.654 694.183 899.827 695.941 896.983 697.691L898.555 700.246ZM915.484 689.618C918.319 687.805 921.138 685.986 923.942 684.164L922.307 681.648C919.509 683.467 916.696 685.282 913.868 687.09L915.484 689.618ZM932.313 678.686C935.102 676.849 937.877 675.01 940.64 673.171L938.977 670.674C936.218 672.511 933.447 674.347 930.663 676.18L932.313 678.686ZM948.992 667.585C951.765 665.724 954.526 663.864 957.276 662.007L955.597 659.52C952.848 661.376 950.09 663.235 947.32 665.095L948.992 667.585ZM965.563 656.401C968.34 654.52 971.108 652.644 973.866 650.775L972.184 648.291C969.424 650.161 966.657 652.036 963.881 653.917L965.563 656.401ZM982.12 645.189C984.898 643.312 987.669 641.443 990.435 639.585L988.761 637.095C985.993 638.955 983.22 640.825 980.44 642.704L982.12 645.189ZM998.75 634.021C1001.52 632.177 1004.28 630.345 1007.04 628.527L1005.4 626.021C1002.63 627.842 999.86 629.677 997.087 631.524L998.75 634.021ZM1015.45 623.035C1018.25 621.22 1021.05 619.422 1023.85 617.644L1022.24 615.112C1019.43 616.896 1016.63 618.698 1013.82 620.517L1015.45 623.035ZM1032.3 612.333C1035.14 610.566 1037.99 608.821 1040.83 607.1L1039.28 604.533C1036.42 606.261 1033.57 608.012 1030.71 609.785L1032.3 612.333ZM1049.38 602.01C1052.27 600.319 1055.16 598.654 1058.05 597.018L1056.58 594.406C1053.67 596.05 1050.76 597.723 1047.86 599.422L1049.38 602.01ZM1066.78 592.185C1069.7 590.599 1072.63 589.046 1075.57 587.525L1074.19 584.861C1071.24 586.39 1068.29 587.953 1065.35 589.547L1066.78 592.185ZM1084.5 583.027C1087.48 581.563 1090.48 580.136 1093.48 578.747L1092.23 576.024C1089.2 577.423 1086.18 578.86 1083.18 580.333L1084.5 583.027ZM1102.58 574.68C1105.64 573.361 1108.7 572.085 1111.78 570.852L1110.67 568.067C1107.56 569.31 1104.47 570.597 1101.39 571.925L1102.58 574.68ZM1121.08 567.288C1124.19 566.145 1127.32 565.048 1130.47 564L1129.52 561.154C1126.34 562.212 1123.18 563.319 1120.04 564.472L1121.08 567.288ZM1139.97 561.003C1143.14 560.06 1146.33 559.167 1149.54 558.327L1148.78 555.425C1145.53 556.274 1142.31 557.176 1139.11 558.128L1139.97 561.003ZM1159.2 555.972C1162.44 555.243 1165.69 554.568 1168.97 553.949L1168.42 551.001C1165.1 551.626 1161.81 552.309 1158.54 553.046L1159.2 555.972ZM1178.72 552.292C1182 551.795 1185.29 551.356 1188.62 550.975L1188.28 547.994C1184.92 548.379 1181.58 548.824 1178.27 549.326L1178.72 552.292ZM1198.5 550.024C1201.77 549.769 1205.06 549.572 1208.39 549.433L1208.26 546.436C1204.9 546.576 1201.57 546.776 1198.26 547.033L1198.5 550.024ZM1218.44 549.197C1221.69 549.18 1224.97 549.218 1228.27 549.316L1228.36 546.317C1225.02 546.219 1221.71 546.18 1218.42 546.197L1218.44 549.197ZM1238.2 549.779C1241.53 549.991 1244.89 550.262 1248.27 550.594L1248.57 547.608C1245.15 547.273 1241.76 547 1238.39 546.785L1238.2 549.779ZM1257.98 551.7C1261.24 552.124 1264.53 552.604 1267.85 553.141L1268.32 550.18C1264.98 549.638 1261.66 549.154 1258.36 548.725L1257.98 551.7ZM1277.82 554.912C1280.97 555.521 1284.15 556.181 1287.36 556.893L1288.01 553.965C1284.77 553.246 1281.57 552.581 1278.39 551.966L1277.82 554.912ZM1297.05 559.188C1300.31 560.006 1303.6 560.878 1306.92 561.804L1307.72 558.915C1304.38 557.982 1301.07 557.103 1297.78 556.278L1297.05 559.188ZM1316.25 564.536C1319.37 565.489 1322.52 566.49 1325.69 567.54L1326.63 564.692C1323.44 563.635 1320.27 562.627 1317.13 561.667L1316.25 564.536ZM1335.28 570.836C1336.89 571.41 1338.5 571.997 1340.13 572.596L1341.17 569.781C1339.53 569.178 1337.9 568.588 1336.28 568.01L1335.28 570.836ZM1340.13 572.596C1341.72 573.183 1343.3 573.774 1344.88 574.367L1345.94 571.559C1344.36 570.964 1342.77 570.371 1341.17 569.781L1340.13 572.596ZM1354.2 577.956C1357.27 579.163 1360.3 580.38 1363.3 581.608L1364.43 578.832C1361.43 577.599 1358.38 576.376 1355.3 575.164L1354.2 577.956ZM1372.16 585.32C1375.28 586.655 1378.36 588.001 1381.39 589.359L1382.62 586.62C1379.57 585.256 1376.48 583.903 1373.34 582.562L1372.16 585.32ZM1390.37 593.463C1393.32 594.841 1396.23 596.231 1399.09 597.63L1400.41 594.935C1397.53 593.527 1394.61 592.131 1391.64 590.745L1390.37 593.463ZM1407.99 602.078C1410.96 603.598 1413.89 605.13 1416.77 606.673L1418.18 604.029C1415.29 602.477 1412.35 600.936 1409.36 599.407L1407.99 602.078ZM1425.26 611.334C1428.17 612.971 1431.04 614.621 1433.85 616.281L1435.37 613.698C1432.54 612.026 1429.66 610.366 1426.73 608.718L1425.26 611.334ZM1442.31 621.403C1445.08 623.122 1447.8 624.851 1450.47 626.592L1452.11 624.08C1449.42 622.327 1446.68 620.584 1443.89 618.854L1442.31 621.403ZM1458.74 632.138C1461.47 634.019 1464.15 635.913 1466.77 637.817L1468.53 635.39C1465.89 633.471 1463.2 631.563 1460.44 629.667L1458.74 632.138ZM1474.53 643.617C1477.2 645.668 1479.81 647.732 1482.36 649.806L1484.25 647.481C1481.68 645.388 1479.05 643.306 1476.36 641.237L1474.53 643.617ZM1489.81 656.063C1492.33 658.242 1494.78 660.431 1497.17 662.632L1499.2 660.425C1496.79 658.204 1494.31 655.993 1491.77 653.794L1489.81 656.063ZM1504.29 669.411C1506.63 671.716 1508.91 674.031 1511.12 676.356L1513.29 674.291C1511.06 671.941 1508.76 669.601 1506.39 667.272L1504.29 669.411ZM1517.8 683.657C1519.97 686.104 1522.06 688.56 1524.08 691.025L1526.4 689.124C1524.35 686.63 1522.24 684.145 1520.05 681.671L1517.8 683.657ZM1530.22 698.832C1532.19 701.443 1534.09 704.062 1535.91 706.689L1538.38 704.978C1536.53 702.318 1534.61 699.666 1532.61 697.024L1530.22 698.832ZM1541.39 714.936C1543.14 717.704 1544.81 720.478 1546.41 723.258L1549.01 721.764C1547.39 718.947 1545.7 716.135 1543.92 713.331L1541.39 714.936ZM1551.13 731.928C1552.63 734.837 1554.05 737.75 1555.39 740.667L1558.12 739.414C1556.76 736.456 1555.32 733.502 1553.8 730.553L1551.13 731.928ZM1559.3 749.727C1560.52 752.762 1561.66 755.799 1562.73 758.835L1565.56 757.846C1564.48 754.764 1563.32 751.683 1562.08 748.604L1559.3 749.727ZM1565.75 768.211C1566.68 771.355 1567.53 774.498 1568.29 777.636L1571.21 776.925C1570.43 773.739 1569.57 770.55 1568.63 767.359L1565.75 768.211ZM1570.39 787.225C1571.01 790.45 1571.55 793.669 1572.02 796.88L1574.99 796.454C1574.52 793.195 1573.97 789.928 1573.34 786.656L1570.39 787.225ZM1573.17 806.597C1573.48 809.871 1573.71 813.134 1573.87 816.386L1576.86 816.245C1576.71 812.947 1576.47 809.635 1576.16 806.313L1573.17 806.597ZM1574.09 826.153C1574.1 829.443 1574.02 832.718 1573.87 835.976L1576.87 836.115C1577.02 832.811 1577.1 829.49 1577.09 826.152L1574.09 826.153ZM1573.2 845.747C1572.9 849.014 1572.52 852.261 1572.08 855.484L1575.06 855.89C1575.5 852.623 1575.88 849.333 1576.18 846.021L1573.2 845.747ZM1570.54 865.18C1569.96 868.403 1569.31 871.601 1568.6 874.769L1571.52 875.429C1572.25 872.219 1572.91 868.98 1573.5 865.714L1570.54 865.18ZM1566.24 884.308C1565.38 887.481 1564.46 890.621 1563.49 893.726L1566.35 894.625C1567.34 891.482 1568.27 888.302 1569.13 885.089L1566.24 884.308ZM1560.37 903.004C1559.25 906.109 1558.08 909.174 1556.86 912.196L1559.64 913.322C1560.88 910.263 1562.06 907.16 1563.19 904.018L1560.37 903.004ZM1553 921.211C1551.65 924.209 1550.24 927.16 1548.79 930.059L1551.48 931.4C1552.94 928.466 1554.36 925.48 1555.73 922.445L1553 921.211ZM1544.22 938.775C1542.63 941.665 1541 944.497 1539.33 947.268L1541.89 948.818C1543.59 946.013 1545.24 943.146 1546.85 940.221L1544.22 938.775ZM1534.1 955.538C1532.27 958.312 1530.4 961.015 1528.5 963.642L1530.93 965.399C1532.86 962.738 1534.75 960.001 1536.61 957.191L1534.1 955.538ZM1522.58 971.467C1520.52 974.062 1518.44 976.569 1516.34 978.982L1518.6 980.953C1520.73 978.504 1522.85 975.961 1524.93 973.33L1522.58 971.467ZM1509.73 986.193C1507.4 988.605 1505.06 990.901 1502.71 993.074L1504.75 995.276C1507.14 993.063 1509.52 990.727 1511.89 988.275L1509.73 986.193ZM1495.32 999.501C1492.71 1001.62 1490.11 1003.58 1487.52 1005.38L1489.23 1007.84C1491.88 1006 1494.55 1004 1497.21 1001.83L1495.32 999.501Z" fill="#7673FF"/>
<g opacity="0.3">
<path d="M64.9784 415.362C64.9784 433.306 50.4325 447.852 32.4892 447.852C14.5459 447.852 0 433.306 0 415.362C0 397.419 14.5459 382.873 32.4892 382.873C50.4325 382.873 64.9784 397.419 64.9784 415.362Z" fill="#7D7AFF"/>
<rect x="82.8496" y="378" width="303.774" height="82.8475" rx="5.80298" fill="#7D7AFF"/>
<path d="M113.715 407.24H349.262M113.715 433.232H249.515" stroke="#625FFB" stroke-width="7.7373" stroke-linecap="round"/>
<path d="M69.8534 758.122C69.8534 776.065 55.3075 790.611 37.3642 790.611C19.4209 790.611 4.875 776.065 4.875 758.122C4.875 740.179 19.4209 725.633 37.3642 725.633C55.3075 725.633 69.8534 740.179 69.8534 758.122Z" fill="#7D7AFF"/>
<rect x="87.7227" y="720.76" width="276.158" height="82.8475" rx="5.80298" fill="#7D7AFF"/>
<path d="M118.588 750H328.143M118.588 775.991H239.403" stroke="#625FFB" stroke-width="7.7373" stroke-linecap="round"/>
<path d="M328.143 533.948C328.143 551.891 342.689 566.437 360.632 566.437C378.575 566.437 393.121 551.891 393.121 533.948C393.121 516.005 378.575 501.459 360.632 501.459C342.689 501.459 328.143 516.005 328.143 533.948Z" fill="#716FFF"/>
<rect width="230.673" height="82.8475" rx="5.80298" transform="matrix(-1 0 0 1 310.271 496.586)" fill="#716FFF"/>
<rect width="305.398" height="87.7208" rx="5.80298" transform="matrix(-1 0 0 1 310.271 597.302)" fill="#716FFF"/>
<path d="M279.41 525.827H118.589M279.41 551.819H186.692" stroke="#7D7AFF" stroke-width="7.7373" stroke-linecap="round"/>
<path d="M279.41 628.168H48.7369M279.41 654.159H103.968" stroke="#7D7AFF" stroke-width="7.7373" stroke-linecap="round"/>
<path d="M328.143 953.059C328.143 971.002 342.689 985.548 360.632 985.548C378.575 985.548 393.121 971.002 393.121 953.059C393.121 935.115 378.575 920.57 360.632 920.57C342.689 920.57 328.143 935.115 328.143 953.059Z" fill="#716FFF"/>
<rect width="305.398" height="82.8475" rx="5.80298" transform="matrix(-1 0 0 1 310.271 915.697)" fill="#716FFF"/>
<path d="M279.41 944.938H56.8592M279.41 970.929H151.103" stroke="#7D7AFF" stroke-width="7.7373" stroke-linecap="round"/>
<rect x="87.7246" y="816.604" width="303.774" height="66.6028" rx="5.80298" fill="#7D7AFF"/>
<path d="M118.586 847.468H354.133" stroke="#625FFB" stroke-width="7.7373" stroke-linecap="round"/>
</g>
<g opacity="0.3">
<path d="M1391.98 37.3625C1391.98 55.3058 1377.43 69.8517 1359.49 69.8517C1341.55 69.8517 1327 55.3058 1327 37.3625C1327 19.4192 1341.55 4.87329 1359.49 4.87329C1377.43 4.87329 1391.98 19.4192 1391.98 37.3625Z" fill="#7D7AFF"/>
<rect x="1409.85" width="303.774" height="82.8475" rx="5.80298" fill="#7D7AFF"/>
<path d="M1440.72 29.2402H1676.26M1440.72 55.2316H1576.52" stroke="#625FFB" stroke-width="7.7373" stroke-linecap="round"/>
<path d="M1396.86 380.122C1396.86 398.065 1382.31 412.611 1364.37 412.611C1346.42 412.611 1331.88 398.065 1331.88 380.122C1331.88 362.179 1346.42 347.633 1364.37 347.633C1382.31 347.633 1396.86 362.179 1396.86 380.122Z" fill="#7D7AFF"/>
<rect x="1414.72" y="342.76" width="276.158" height="82.8475" rx="5.80298" fill="#7D7AFF"/>
<path d="M1445.59 372H1655.15M1445.59 397.991H1566.4" stroke="#625FFB" stroke-width="7.7373" stroke-linecap="round"/>
<path d="M1655.14 155.948C1655.14 173.891 1669.69 188.437 1687.63 188.437C1705.58 188.437 1720.12 173.891 1720.12 155.948C1720.12 138.005 1705.58 123.459 1687.63 123.459C1669.69 123.459 1655.14 138.005 1655.14 155.948Z" fill="#716FFF"/>
<rect width="230.673" height="82.8475" rx="5.80298" transform="matrix(-1 0 0 1 1637.27 118.586)" fill="#716FFF"/>
<rect width="305.398" height="87.7208" rx="5.80298" transform="matrix(-1 0 0 1 1637.27 219.302)" fill="#716FFF"/>
<path d="M1606.41 147.827H1445.59M1606.41 173.819H1513.69" stroke="#7D7AFF" stroke-width="7.7373" stroke-linecap="round"/>
<path d="M1606.41 250.168H1375.74M1606.41 276.159H1430.97" stroke="#7D7AFF" stroke-width="7.7373" stroke-linecap="round"/>
<path d="M1655.14 575.059C1655.14 593.002 1669.69 607.548 1687.63 607.548C1705.58 607.548 1720.12 593.002 1720.12 575.059C1720.12 557.115 1705.58 542.57 1687.63 542.57C1669.69 542.57 1655.14 557.115 1655.14 575.059Z" fill="#716FFF"/>
<rect width="305.398" height="82.8475" rx="5.80298" transform="matrix(-1 0 0 1 1637.27 537.697)" fill="#716FFF"/>
<path d="M1606.41 566.938H1383.86M1606.41 592.929H1478.1" stroke="#7D7AFF" stroke-width="7.7373" stroke-linecap="round"/>
<rect x="1414.73" y="438.604" width="303.774" height="66.6028" rx="5.80298" fill="#7D7AFF"/>
<path d="M1445.59 469.468H1681.13" stroke="#625FFB" stroke-width="7.7373" stroke-linecap="round"/>
</g>
</svg>
