<svg width="109" height="40" viewBox="0 0 109 40" fill="none" xmlns="http://www.w3.org/2000/svg">
<path d="M10.162 31.8476C9.02203 31.8476 7.88203 31.8076 6.74203 31.7276C5.62203 31.6676 4.45203 31.5076 3.23203 31.2476V11.0876C4.19203 10.9076 5.24203 10.7776 6.38203 10.6976C7.52203 10.5976 8.58203 10.5476 9.56203 10.5476C10.882 10.5476 12.092 10.6476 13.192 10.8476C14.312 11.0276 15.272 11.3476 16.072 11.8076C16.872 12.2676 17.492 12.8776 17.932 13.6376C18.392 14.3776 18.622 15.2976 18.622 16.3976C18.622 18.0576 17.822 19.3676 16.222 20.3276C17.542 20.8276 18.442 21.5076 18.922 22.3676C19.402 23.2276 19.642 24.1976 19.642 25.2776C19.642 27.4576 18.842 29.0976 17.242 30.1976C15.662 31.2976 13.302 31.8476 10.162 31.8476ZM7.79203 22.5176V27.8876C8.13203 27.9276 8.50203 27.9576 8.90203 27.9776C9.30203 27.9976 9.74203 28.0076 10.222 28.0076C11.622 28.0076 12.752 27.8076 13.612 27.4076C14.472 27.0076 14.902 26.2676 14.902 25.1876C14.902 24.2276 14.542 23.5476 13.822 23.1476C13.102 22.7276 12.072 22.5176 10.732 22.5176H7.79203ZM7.79203 18.9476H10.072C11.512 18.9476 12.542 18.7676 13.162 18.4076C13.782 18.0276 14.092 17.4276 14.092 16.6076C14.092 15.7676 13.772 15.1776 13.132 14.8376C12.492 14.4976 11.552 14.3276 10.312 14.3276C9.91203 14.3276 9.48203 14.3376 9.02203 14.3576C8.56203 14.3576 8.15203 14.3776 7.79203 14.4176V18.9476ZM27.5583 31.5776H23.0883V15.7976H27.5583V31.5776ZM27.9783 11.2376C27.9783 12.0576 27.7083 12.7076 27.1683 13.1876C26.6483 13.6476 26.0283 13.8776 25.3083 13.8776C24.5883 13.8776 23.9583 13.6476 23.4183 13.1876C22.8983 12.7076 22.6383 12.0576 22.6383 11.2376C22.6383 10.4176 22.8983 9.77764 23.4183 9.31764C23.9583 8.83764 24.5883 8.59764 25.3083 8.59764C26.0283 8.59764 26.6483 8.83764 27.1683 9.31764C27.7083 9.77764 27.9783 10.4176 27.9783 11.2376ZM31.6102 11.8676L36.0802 11.1476V15.7976H41.4502V19.5176H36.0802V25.0676C36.0802 26.0076 36.2402 26.7576 36.5602 27.3176C36.9002 27.8776 37.5702 28.1576 38.5702 28.1576C39.0502 28.1576 39.5402 28.1176 40.0402 28.0376C40.5602 27.9376 41.0302 27.8076 41.4502 27.6476L42.0802 31.1276C41.5402 31.3476 40.9402 31.5376 40.2802 31.6976C39.6202 31.8576 38.8102 31.9376 37.8502 31.9376C36.6302 31.9376 35.6202 31.7776 34.8202 31.4576C34.0202 31.1176 33.3802 30.6576 32.9002 30.0776C32.4202 29.4776 32.0802 28.7576 31.8802 27.9176C31.7002 27.0776 31.6102 26.1476 31.6102 25.1276V11.8676Z" fill="#303030"/>
<path d="M82.962 28.4576C83.402 28.4576 83.822 28.4476 84.222 28.4276C84.622 28.4076 84.942 28.3776 85.182 28.3376V24.9476C85.002 24.9076 84.732 24.8676 84.372 24.8276C84.012 24.7876 83.682 24.7676 83.382 24.7676C82.962 24.7676 82.562 24.7976 82.182 24.8576C81.822 24.8976 81.502 24.9876 81.222 25.1276C80.942 25.2676 80.722 25.4576 80.562 25.6976C80.402 25.9376 80.322 26.2376 80.322 26.5976C80.322 27.2976 80.552 27.7876 81.012 28.0676C81.492 28.3276 82.142 28.4576 82.962 28.4576ZM82.602 15.3776C83.922 15.3776 85.022 15.5276 85.902 15.8276C86.782 16.1276 87.482 16.5576 88.002 17.1176C88.542 17.6776 88.922 18.3576 89.142 19.1576C89.362 19.9576 89.472 20.8476 89.472 21.8276V31.1276C88.832 31.2676 87.942 31.4276 86.802 31.6076C85.662 31.8076 84.282 31.9076 82.662 31.9076C81.642 31.9076 80.712 31.8176 79.872 31.6376C79.052 31.4576 78.342 31.1676 77.742 30.7676C77.142 30.3476 76.682 29.8076 76.362 29.1476C76.042 28.4876 75.882 27.6776 75.882 26.7176C75.882 25.7976 76.062 25.0176 76.422 24.3776C76.802 23.7376 77.302 23.2276 77.922 22.8476C78.542 22.4676 79.252 22.1976 80.052 22.0376C80.852 21.8576 81.682 21.7676 82.542 21.7676C83.122 21.7676 83.632 21.7976 84.072 21.8576C84.532 21.8976 84.902 21.9576 85.182 22.0376V21.6176C85.182 20.8576 84.952 20.2476 84.492 19.7876C84.032 19.3276 83.232 19.0976 82.092 19.0976C81.332 19.0976 80.582 19.1576 79.842 19.2776C79.102 19.3776 78.462 19.5276 77.922 19.7276L77.352 16.1276C77.612 16.0476 77.932 15.9676 78.312 15.8876C78.712 15.7876 79.142 15.7076 79.602 15.6476C80.062 15.5676 80.542 15.5076 81.042 15.4676C81.562 15.4076 82.082 15.3776 82.602 15.3776ZM99.7841 20.5976L102.904 15.7976H107.524L102.124 23.3876C103.324 24.8876 104.414 26.3476 105.394 27.7676C106.374 29.1876 107.154 30.4576 107.734 31.5776H102.934C102.774 31.2776 102.574 30.9076 102.334 30.4676C102.094 30.0076 101.824 29.5376 101.524 29.0576C101.224 28.5576 100.904 28.0676 100.564 27.5876C100.244 27.0876 99.9241 26.6376 99.6041 26.2376C99.3041 26.6176 98.9941 27.0376 98.6741 27.4976C98.3741 27.9576 98.0841 28.4276 97.8041 28.9076C97.5241 29.3676 97.2441 29.8276 96.9641 30.2876C96.7041 30.7476 96.4741 31.1776 96.2741 31.5776H91.7141C91.9541 31.0776 92.2841 30.4876 92.7041 29.8076C93.1241 29.1276 93.5741 28.4276 94.0541 27.7076C94.5541 26.9676 95.0741 26.2376 95.6141 25.5176C96.1541 24.7776 96.6841 24.0876 97.2041 23.4476C96.3041 22.1876 95.4041 20.9176 94.5041 19.6376C93.6041 18.3376 92.7141 17.0576 91.8341 15.7976H96.6641L99.7841 20.5976Z" fill="#303030"/>
<path d="M53.332 11.5776L56.2677 12.1894L58.916 13.9649L61.0177 16.7303L62.3671 20.2149L62.832 24.0776L62.3671 27.9403L61.0177 31.425L58.916 34.1903L56.2677 35.9658L53.332 36.5776L50.3964 35.9658L47.7481 34.1903L45.6464 31.425L44.297 27.9403L43.832 24.0776L44.297 20.2149L45.6464 16.7303L47.7481 13.9649L50.3964 12.1894L53.332 11.5776Z" fill="#303030"/>
<path d="M63.332 11.5776L66.2677 12.1894L68.916 13.9649L71.0177 16.7303L72.3671 20.2149L72.832 24.0776L72.3671 27.9403L71.0177 31.425L68.916 34.1903L66.2677 35.9658L63.332 36.5776L60.3964 35.9658L57.7481 34.1903L55.6464 31.425L54.297 27.9403L53.832 24.0776L54.297 20.2149L55.6464 16.7303L57.7481 13.9649L60.3964 12.1894L63.332 11.5776Z" fill="#303030"/>
</svg>
