<svg width="130" height="35" viewBox="0 0 130 35" fill="none" xmlns="http://www.w3.org/2000/svg">
<path d="M28.3227 34.0695H7.22737C3.7607 34.0695 0.951172 31.2881 0.951172 27.8561V6.97175C0.951172 3.53974 3.7607 0.758301 7.22737 0.758301H28.3227C31.7893 0.758301 34.5989 3.53974 34.5989 6.97175V27.8561C34.5989 31.2881 31.7893 34.0695 28.3227 34.0695Z" fill="#303030"/>
<path d="M23.8376 17.7206C24.4376 18.4655 24.7423 19.3329 24.7423 20.3135C24.7423 21.7561 24.2566 22.8875 23.2852 23.6889C22.3138 24.4904 20.9233 24.9052 19.1138 24.9052H11.209V8.0752H18.9233C20.6566 8.0752 21.99 8.45234 22.9328 9.1972C23.8757 9.94206 24.3519 11.0075 24.3519 12.3841C24.3519 13.4023 24.0757 14.2415 23.5328 14.9204C22.99 15.5992 22.2757 16.0329 21.39 16.2404C22.4281 16.4855 23.2376 16.9758 23.8376 17.7206ZM15.3138 14.9581H18.009C19.4376 14.9581 20.1518 14.3546 20.1518 13.1478C20.1518 11.9409 19.4185 11.3375 17.9614 11.3375H15.3138V14.9581ZM20.5328 19.7478C20.5328 19.1444 20.3328 18.6729 19.9328 18.3335C19.5328 17.9941 18.9614 17.8244 18.228 17.8244H15.3233V21.6052H18.2566C19.7709 21.5958 20.5328 20.9829 20.5328 19.7478Z" fill="white"/>
<path d="M54.0949 24.9052L50.4187 18.5504H49.4854V24.9052H45.3711V8.0752H52.3902C53.733 8.0752 54.8759 8.30148 55.7997 8.76349C56.733 9.22549 57.4283 9.8572 57.8949 10.6586C58.3616 11.4601 58.5902 12.3746 58.5902 13.4118C58.5902 14.6375 58.2473 15.6746 57.5711 16.5326C56.8854 17.3906 55.9045 17.9752 54.5997 18.2958L58.6378 24.9147H54.0949V24.9052ZM49.4854 15.7689H52.0282C52.8473 15.7689 53.4473 15.5898 53.8283 15.2315C54.2092 14.8732 54.4092 14.3452 54.4092 13.6475C54.4092 12.9781 54.2092 12.4595 53.8187 12.0729C53.4282 11.6958 52.8282 11.4978 52.0282 11.4978H49.4854V15.7689Z" fill="#303030"/>
<path d="M77.1997 21.8408H70.8283L69.7711 24.9145H65.4473L71.6759 8.20703H76.4092L82.6378 24.9145H78.2664L77.1997 21.8408ZM76.1425 18.7388L74.0282 12.5536L71.8854 18.7388H76.1425Z" fill="#303030"/>
<path d="M105.333 24.9052H101.219L94.3428 14.5715V24.9052H90.2285V8.0752H94.3428L101.219 18.5032V8.0752H105.333V24.9052Z" fill="#303030"/>
<path d="M128.401 20.8508C127.686 22.1236 126.658 23.1231 125.325 23.8396C123.982 24.5562 122.41 24.9145 120.601 24.9145H114.182V8.08447H120.601C122.429 8.08447 124.01 8.43333 125.334 9.13105C126.667 9.82876 127.686 10.8093 128.401 12.0822C129.115 13.3551 129.467 14.8071 129.467 16.4665C129.467 18.1071 129.105 19.5685 128.401 20.8508ZM123.972 20.0022C124.858 19.1631 125.305 17.9751 125.305 16.4571C125.305 14.9296 124.858 13.7511 123.972 12.9119C123.086 12.0728 121.839 11.6485 120.229 11.6485H118.286V21.2656H120.229C121.839 21.2656 123.086 20.8508 123.972 20.0022Z" fill="#303030"/>
</svg>
