<svg width="116" height="64" viewBox="0 0 116 64" fill="none" xmlns="http://www.w3.org/2000/svg">
<path d="M30.5639 14.8276L1.63672 28.8276V35.8276H113.637V0.827637L65.4248 22.8276L30.5639 14.8276Z" fill="url(#paint0_linear_1636_6986)"/>
<path d="M0.636719 28.8276L25.7031 16.6999C28.5382 15.3282 31.7531 14.9525 34.8281 15.6336L61.0883 21.4503C63.9961 22.0944 67.0335 21.7944 69.7591 20.5939L114.637 0.827637" stroke="#303030" stroke-linecap="round"/>
<path d="M21.1851 57.3276H26.8247C28.3696 57.3276 29.6069 56.9551 30.5366 56.21C31.4731 55.458 31.9414 54.4053 31.9414 53.0518C31.9414 52.0742 31.7124 51.2881 31.2544 50.6934C30.7964 50.0986 30.2119 49.6987 29.501 49.4937V49.4526C30.0752 49.2544 30.5537 48.8887 30.9365 48.3555C31.3262 47.8223 31.521 47.1421 31.521 46.3149C31.521 44.9819 31.0801 43.9976 30.1982 43.3618C29.3232 42.7192 28.0996 42.3979 26.5273 42.3979H21.1851V57.3276ZM23.9023 55.3179V50.5293H26.6812C27.5425 50.5293 28.1748 50.7446 28.5781 51.1753C28.9883 51.606 29.1934 52.187 29.1934 52.9185C29.1934 53.6567 28.9883 54.2412 28.5781 54.6719C28.1748 55.1025 27.5425 55.3179 26.6812 55.3179H23.9023ZM23.9023 48.6528V44.4282H26.394C27.2554 44.4282 27.874 44.6094 28.25 44.9717C28.626 45.3271 28.814 45.8433 28.814 46.52C28.814 47.1899 28.626 47.7129 28.25 48.0889C27.874 48.4648 27.2554 48.6528 26.394 48.6528H23.9023ZM34.0332 53.3901C34.0332 54.8804 34.3613 55.9468 35.0176 56.5894C35.6807 57.2251 36.542 57.543 37.6016 57.543C38.292 57.543 38.9106 57.4097 39.4575 57.1431C40.0112 56.8696 40.4521 56.5039 40.7803 56.0459H40.8315L40.8931 57.3276H43.4258V46.7456H40.7495V53.9438C40.5444 54.3813 40.2471 54.7437 39.8574 55.0308C39.4678 55.3179 39.0234 55.4614 38.5244 55.4614C37.957 55.4614 37.5127 55.3076 37.1914 55C36.8701 54.6924 36.7095 54.1592 36.7095 53.4004V46.7456H34.0332V53.3901ZM46.1328 57.3276H48.8193V46.7456H46.1328V57.3276ZM45.897 43.6079C45.897 44.0249 46.0337 44.377 46.3071 44.6641C46.5806 44.9443 46.9702 45.0845 47.4761 45.0845C47.9888 45.0845 48.3818 44.9443 48.6553 44.6641C48.9287 44.377 49.0654 44.0249 49.0654 43.6079C49.0654 43.1909 48.9287 42.8423 48.6553 42.562C48.3818 42.2817 47.9922 42.1416 47.4863 42.1416C46.9736 42.1416 46.5806 42.2817 46.3071 42.562C46.0337 42.8423 45.897 43.1909 45.897 43.6079ZM51.5776 57.3276H54.2539V41.7314H51.5776V57.3276ZM56.3662 52.2007C56.3662 53.7593 56.7695 55.0376 57.5762 56.0356C58.3896 57.0337 59.4971 57.5327 60.8984 57.5327C61.5957 57.5327 62.2109 57.3892 62.7441 57.1021C63.2773 56.8081 63.6704 56.4458 63.9233 56.0151H63.9644L64.0259 57.3276H66.5483V41.7314H63.8823V47.894C63.6021 47.4839 63.209 47.1558 62.7031 46.9097C62.1973 46.6636 61.5923 46.5405 60.8882 46.5405C59.5347 46.5405 58.4409 47.0396 57.6069 48.0376C56.7798 49.0288 56.3662 50.3071 56.3662 51.8726V52.2007ZM59.0938 52.2725V51.7905C59.0938 50.854 59.2988 50.085 59.709 49.4834C60.1191 48.875 60.7378 48.5708 61.5649 48.5708C62.146 48.5708 62.6313 48.7246 63.021 49.0322C63.4106 49.333 63.6943 49.6919 63.8721 50.1089V53.9438C63.6943 54.3608 63.4072 54.7266 63.0107 55.041C62.6143 55.3486 62.1323 55.5024 61.5649 55.5024C60.731 55.5024 60.1089 55.2017 59.6987 54.6001C59.2954 53.9917 59.0938 53.2158 59.0938 52.2725ZM74.29 52.0571C74.29 53.9575 74.8232 55.3589 75.8896 56.2612C76.9629 57.1636 78.3027 57.6147 79.9092 57.6147C81.5088 57.6147 82.8418 57.1636 83.9082 56.2612C84.9746 55.3589 85.5078 53.9575 85.5078 52.0571V42.3979H82.7905V52.2109C82.7905 53.3799 82.5273 54.2173 82.001 54.7231C81.4746 55.2222 80.7808 55.4717 79.9194 55.4717C79.0513 55.4717 78.354 55.2222 77.8276 54.7231C77.3081 54.2173 77.0483 53.3799 77.0483 52.2109V42.3979H74.29V52.0571ZM88.2251 61.624H90.9014V56.1997C91.1885 56.6099 91.5952 56.9346 92.1216 57.1738C92.6548 57.4131 93.27 57.5327 93.9673 57.5327C95.3003 57.5327 96.3735 57.0439 97.187 56.0664C98.0005 55.082 98.4072 53.79 98.4072 52.1904V51.8623C98.4072 50.2559 97.9971 48.9673 97.1768 47.9966C96.3564 47.019 95.2695 46.5303 93.916 46.5303C93.2188 46.5303 92.5933 46.6738 92.0396 46.9609C91.4858 47.2412 91.0859 47.5933 90.8398 48.0171H90.7886L90.7271 46.7456H88.2251V61.624ZM90.9014 53.9233V50.1191C91.0791 49.709 91.3662 49.3501 91.7627 49.0425C92.166 48.728 92.6582 48.5708 93.2393 48.5708C94.0732 48.5708 94.6885 48.8613 95.085 49.4424C95.4814 50.0166 95.6797 50.7891 95.6797 51.7598V52.293C95.6797 53.2637 95.4814 54.043 95.085 54.6309C94.6885 55.2119 94.0767 55.5024 93.2495 55.5024C92.6821 55.5024 92.1899 55.3452 91.7729 55.0308C91.3628 54.7095 91.0723 54.3403 90.9014 53.9233Z" fill="#303030"/>
<defs>
<linearGradient id="paint0_linear_1636_6986" x1="57.6367" y1="0.827637" x2="57.4682" y2="35.3286" gradientUnits="userSpaceOnUse">
<stop stop-color="#676767"/>
<stop offset="1" stop-color="#ECECEC"/>
</linearGradient>
</defs>
</svg>
