<svg width="93" height="38" viewBox="0 0 93 38" fill="none" xmlns="http://www.w3.org/2000/svg">
<path d="M0.832031 23.4574V0.713867H14.3622V23.4463H0.832031V23.4574ZM12.7229 18.1661L13.071 15.6539L11.8134 15.5316L11.4316 17.4658C10.6456 17.8549 9.68 18.0439 8.52347 18.0439C6.9515 18.0439 5.70514 17.5547 4.79565 16.5654C3.87492 15.5761 3.42578 14.2755 3.42578 12.6525C3.42578 11.0741 3.87492 9.77348 4.76196 8.7508C5.649 7.72812 6.81678 7.21678 8.26524 7.21678C9.00632 7.21678 9.63509 7.30571 10.1404 7.47245C10.6456 7.63919 11.106 7.86151 11.5439 8.15053L11.9145 10.0625L13.1945 9.94022L12.824 7.42799C12.285 6.97223 11.645 6.6054 10.9039 6.31638C10.1628 6.03848 9.24211 5.89396 8.15295 5.89396C6.86169 5.89396 5.75008 6.20522 4.81812 6.83883C3.88617 7.47245 3.15632 8.30616 2.63982 9.33995C2.12331 10.3849 1.86506 11.5076 1.86506 12.7081C1.86506 14.609 2.46016 16.1986 3.65036 17.4658C4.84057 18.7331 6.39008 19.3667 8.31013 19.3667C10.1965 19.3667 11.6674 18.9665 12.7229 18.1661Z" fill="#303030"/>
<path d="M18.9551 23.4574V0.713867H24.7714V23.4463H18.9551V23.4574ZM19.5726 19.1666H24.165V18.0216H22.5819V5.32705H19.5502V6.472H21.1558V18.0216H19.5726V19.1666Z" fill="#303030"/>
<path d="M29.3633 23.4574V0.713867H39.5811V23.4463H29.3633V23.4574ZM31.216 10.8962L30.8904 12.9638L32.0693 13.1083L32.4174 11.5632C32.9227 11.3186 33.4953 11.1963 34.169 11.1963C34.9775 11.1963 35.5277 11.3964 35.8084 11.7966C36.0891 12.1968 36.2238 12.7192 36.2238 13.364V14.1643C35.9768 14.1421 35.7185 14.1199 35.4378 14.1088C35.1571 14.0976 34.8877 14.0865 34.6182 14.0865C33.6076 14.0865 32.642 14.2644 31.7437 14.6201C30.8454 14.9758 30.3963 15.7206 30.3963 16.8433C30.3963 17.7993 30.6995 18.4551 31.317 18.8109C31.9346 19.1777 32.5409 19.3556 33.136 19.3556C33.8659 19.3556 34.4946 19.1666 35.0112 18.7886C35.5277 18.4107 35.9319 17.9883 36.2238 17.4992V17.5436C36.2463 18.7553 36.7965 19.3556 37.8744 19.3556C38.2899 19.3556 38.6828 19.2555 39.0534 19.0554L39.0309 18.1328C38.8513 18.2106 38.6492 18.2551 38.4246 18.2551C37.9081 18.2551 37.6498 17.9327 37.6498 17.288V13.0305C37.6498 11.0296 36.5719 10.0292 34.416 10.0292C33.8209 10.0292 33.2595 10.0958 32.7318 10.2292C32.1928 10.3738 31.6875 10.5961 31.216 10.8962ZM36.2126 15.8095C36.1565 16.5432 35.8533 17.1323 35.3031 17.5547C34.7529 17.9883 34.169 18.1995 33.5402 18.1995C33.1472 18.1995 32.7655 18.0883 32.4062 17.8771C32.0357 17.6659 31.856 17.2657 31.856 16.6877C31.856 15.9874 32.1367 15.5427 32.6757 15.3315C33.2259 15.1203 33.8322 15.0203 34.5171 15.0203C34.8203 15.0203 35.1122 15.0314 35.3929 15.0647C35.6736 15.087 35.9543 15.1092 36.2014 15.1203V15.8095H36.2126Z" fill="#303030"/>
<path d="M44.1855 23.4574V0.713867H53.4714V23.4463H44.1855V23.4574ZM52.4945 16.5765C52.4945 15.8651 52.3036 15.3426 51.9219 14.998C51.5401 14.6534 51.0798 14.42 50.5183 14.2866C49.9569 14.1532 49.4067 14.0421 48.8566 13.9531C48.3064 13.8642 47.8348 13.7197 47.453 13.5307C47.0712 13.3417 46.8803 13.0083 46.8803 12.5303C46.8803 12.0745 47.06 11.741 47.4305 11.5187C47.8011 11.2964 48.2614 11.1963 48.8341 11.1963C49.4966 11.1963 50.1141 11.3408 50.6868 11.641L50.9114 13.0861L52.0903 12.9416L51.8658 10.8517C51.484 10.6183 51.0236 10.4293 50.4734 10.2737C49.9233 10.1181 49.3394 10.0292 48.7106 10.0292C47.8797 10.0292 47.1162 10.2292 46.4088 10.6183C45.7014 11.0074 45.3533 11.6743 45.3533 12.6303C45.3533 13.3306 45.5442 13.842 45.9259 14.1643C46.3077 14.4978 46.7793 14.7201 47.352 14.8535C47.9246 14.9869 48.486 15.0981 49.0474 15.1981C49.6088 15.2871 50.0804 15.4427 50.4622 15.6428C50.844 15.8429 51.0349 16.1875 51.0349 16.6877C51.0349 17.199 50.7878 17.577 50.2938 17.8215C49.7997 18.0661 49.2383 18.1884 48.5983 18.1884C47.8797 18.1884 47.206 18.0439 46.5884 17.7437L46.6446 16.5543L45.5105 16.432L45.2298 18.4663C45.6228 18.7219 46.1393 18.9331 46.7681 19.0999C47.3968 19.2666 48.0256 19.3556 48.6657 19.3556C49.7548 19.3556 50.6643 19.111 51.3942 18.6108C52.124 18.1328 52.4945 17.4436 52.4945 16.5765Z" fill="#303030"/>
<path d="M58.0625 23.4574V0.713867H67.3483V23.4463H58.0625V23.4574ZM66.3715 16.5765C66.3715 15.8651 66.1806 15.3426 65.7988 14.998C65.417 14.6534 64.9567 14.42 64.3953 14.2866C63.8338 14.1532 63.2837 14.0421 62.7335 13.9531C62.1833 13.8642 61.7117 13.7197 61.3299 13.5307C60.9482 13.3417 60.7573 13.0083 60.7573 12.5303C60.7573 12.0745 60.9369 11.741 61.3074 11.5187C61.678 11.2964 62.1383 11.1963 62.711 11.1963C63.3735 11.1963 63.9911 11.3408 64.5637 11.641L64.7883 13.0861L65.9672 12.9416L65.7427 10.8517C65.3609 10.6183 64.9006 10.4293 64.3504 10.2737C63.8002 10.1181 63.2163 10.0292 62.5875 10.0292C61.7566 10.0292 60.9931 10.2292 60.2857 10.6183C59.5783 11.0074 59.2302 11.6743 59.2302 12.6303C59.2302 13.3306 59.4211 13.842 59.8029 14.1643C60.1846 14.4978 60.6563 14.7201 61.2289 14.8535C61.8016 14.9869 62.3629 15.0981 62.9243 15.1981C63.4858 15.2871 63.9574 15.4427 64.3391 15.6428C64.7209 15.8429 64.9118 16.1875 64.9118 16.6877C64.9118 17.199 64.6648 17.577 64.1707 17.8215C63.6767 18.0661 63.1153 18.1884 62.4752 18.1884C61.7566 18.1884 61.0829 18.0439 60.4653 17.7437L60.5215 16.5543L59.3874 16.432L59.1067 18.4663C59.4997 18.7219 60.0162 18.9331 60.645 19.0999C61.2738 19.2666 61.9026 19.3556 62.5426 19.3556C63.6318 19.3556 64.5413 19.111 65.2711 18.6108C66.0009 18.1328 66.3715 17.4436 66.3715 16.5765Z" fill="#303030"/>
<path d="M71.9414 23.4574V0.713867H78.0609V23.4463H71.9414V23.4574ZM72.8397 19.1666H77.4321V18.0216H75.8489V10.2181H72.806V11.3631H74.4341V18.0216H72.8509V19.1666H72.8397ZM74.2769 6.07182V7.90598H75.8264V6.07182H74.2769Z" fill="#303030"/>
<path d="M82.6523 23.4574V0.713867H92.4323V23.4463H82.6523V23.4574ZM91.5564 16.1541L90.3326 15.8873C90.0631 17.3991 89.2434 18.155 87.896 18.155C86.9978 18.155 86.3128 17.8549 85.8412 17.2546C85.3696 16.6543 85.1338 15.8095 85.1338 14.7424C85.1338 13.7753 85.3472 12.9527 85.7626 12.2635C86.1781 11.5743 86.8742 11.2408 87.8398 11.2408C88.5809 11.2408 89.2322 11.4075 89.7712 11.741L90.1192 13.2528L91.2982 13.1083L90.9501 10.9518C90.4898 10.6072 90.007 10.3626 89.5017 10.2292C88.9964 10.0958 88.4462 10.0292 87.8511 10.0292C86.4475 10.0292 85.3808 10.5183 84.6847 11.4965C83.9773 12.4747 83.6292 13.5863 83.6292 14.8202C83.6292 16.2542 83.9997 17.3769 84.752 18.1661C85.4931 18.9665 86.4925 19.3667 87.7388 19.3667C88.9852 19.3667 89.9059 19.0221 90.4898 18.344C91.0737 17.6548 91.4329 16.9322 91.5564 16.1541Z" fill="#303030"/>
<path d="M6.6827 35.8736C6.42445 36.3404 6.04267 36.7073 5.54862 36.9629C5.04335 37.2186 4.44824 37.352 3.75208 37.352H1.74219V31.0825H3.75208C4.44824 31.0825 5.05457 31.2048 5.54862 31.4605C6.04267 31.7161 6.42445 32.0719 6.6827 32.5498C6.94095 33.0278 7.06446 33.5725 7.06446 34.2173C7.06446 34.8509 6.94095 35.4067 6.6827 35.8736ZM5.57107 35.9958C6.00897 35.5734 6.22233 34.9843 6.22233 34.2173C6.22233 33.4502 6.00897 32.8611 5.57107 32.4387C5.13316 32.0163 4.50437 31.8051 3.67347 31.8051H2.53943V36.6294H3.67347C4.50437 36.6294 5.13316 36.4182 5.57107 35.9958Z" fill="#303030"/>
<path d="M11.2298 31.7384V33.8838H13.6327V34.5063H11.2298V36.6961H13.9022V37.352H10.4102V31.0825H13.9022V31.7384H11.2298Z" fill="#303030"/>
<path d="M20.9993 36.5519C20.8533 36.8076 20.6399 37.0188 20.348 37.1744C20.056 37.3301 19.6967 37.419 19.2588 37.419C18.8434 37.419 18.4616 37.3412 18.136 37.1967C17.8104 37.041 17.5521 36.8409 17.35 36.5742C17.1591 36.3074 17.0468 36.0072 17.0132 35.6738H17.889C17.9114 35.8516 17.9676 36.0295 18.0686 36.1962C18.1697 36.363 18.3269 36.5075 18.5178 36.6186C18.7086 36.7298 18.9444 36.7854 19.2251 36.7854C19.5845 36.7854 19.8652 36.6964 20.0561 36.4963C20.247 36.2963 20.348 36.0628 20.348 35.7627C20.348 35.507 20.2806 35.2958 20.1459 35.1402C20.0111 34.9846 19.8427 34.8512 19.6518 34.7622C19.461 34.6733 19.1802 34.5733 18.8434 34.4621C18.4392 34.3287 18.1248 34.2064 17.8778 34.0953C17.6307 33.9841 17.4286 33.8063 17.2602 33.5728C17.0918 33.3394 17.002 33.0392 17.002 32.6613C17.002 32.3389 17.0805 32.0499 17.2377 31.7942C17.3949 31.5497 17.6195 31.3496 17.9227 31.2162C18.2146 31.0828 18.5739 31.0161 18.9669 31.0161C19.5845 31.0161 20.0897 31.1606 20.449 31.4608C20.8196 31.7609 21.0217 32.1388 21.0891 32.6057H20.2133C20.1683 32.3612 20.0336 32.1388 19.8315 31.9499C19.6182 31.7609 19.3374 31.6608 18.9781 31.6608C18.6525 31.6608 18.383 31.7498 18.1922 31.9165C17.99 32.0833 17.9002 32.3278 17.9002 32.6279C17.9002 32.8725 17.9676 33.0726 18.0911 33.2171C18.2258 33.3727 18.383 33.4839 18.5739 33.5728C18.7648 33.6617 19.0343 33.7507 19.3599 33.8618C19.7641 33.9952 20.0897 34.1175 20.348 34.2398C20.595 34.3621 20.8083 34.5399 20.9768 34.7734C21.1452 35.0068 21.235 35.3292 21.235 35.7293C21.2126 36.0184 21.1452 36.2963 20.9993 36.5519Z" fill="#303030"/>
<path d="M25.3783 31.0825V37.352H24.5586V31.0825H25.3783Z" fill="#303030"/>
<path d="M33.6636 31.5606C34.1689 31.9274 34.5058 32.4165 34.6742 33.039H33.8096C33.6637 32.6611 33.4054 32.3498 33.0573 32.1275C32.7092 31.894 32.2938 31.7829 31.811 31.7829C31.3843 31.7829 30.9913 31.8829 30.6544 32.083C30.3176 32.2831 30.0481 32.561 29.846 32.9278C29.6551 33.2947 29.5541 33.7282 29.5541 34.2284C29.5541 34.7398 29.6551 35.1844 29.846 35.5512C30.0369 35.9181 30.3176 36.2071 30.6657 36.4072C31.0137 36.6073 31.418 36.7073 31.8783 36.7073C32.2713 36.7073 32.6194 36.6184 32.945 36.4628C33.2706 36.296 33.5289 36.0515 33.7422 35.7402C33.9556 35.429 34.0679 35.051 34.1128 34.6286H31.6201V34.0283H34.7977V34.7731C34.7415 35.2733 34.5844 35.718 34.3261 36.1293C34.0679 36.5406 33.7198 36.8518 33.2819 37.0853C32.844 37.3187 32.3499 37.441 31.7885 37.441C31.1822 37.441 30.6432 37.3076 30.1716 37.0408C29.7 36.774 29.3407 36.3961 29.0825 35.907C28.8242 35.429 28.6895 34.8732 28.6895 34.2507C28.6895 33.6282 28.8242 33.0724 29.0825 32.5944C29.3407 32.1164 29.7112 31.7273 30.1716 31.4605C30.632 31.1937 31.1709 31.0492 31.7773 31.0492C32.5408 31.027 33.1584 31.2048 33.6636 31.5606Z" fill="#303030"/>
<path d="M43.0855 37.352H42.2658L38.9759 32.3942V37.352H38.1562V31.0825H38.9759L42.2658 36.0403V31.0825H43.0855V37.352Z" fill="#303030"/>
<path d="M54.8977 36.5514C54.7517 36.8071 54.5384 37.0183 54.2464 37.1739C53.9545 37.3296 53.5952 37.4185 53.1573 37.4185C52.7419 37.4185 52.3601 37.3407 52.0345 37.1962C51.7088 37.0405 51.4506 36.8405 51.2485 36.5737C51.0576 36.3069 50.9453 36.0067 50.9116 35.6733H51.7874C51.8099 35.8511 51.866 36.029 51.9671 36.1957C52.0682 36.3625 52.2253 36.507 52.4162 36.6181C52.6071 36.7293 52.8429 36.7849 53.1236 36.7849C53.4829 36.7849 53.7636 36.6959 53.9545 36.4959C54.1454 36.2958 54.2464 36.0623 54.2464 35.7622C54.2464 35.5065 54.1791 35.2953 54.0443 35.1397C53.9096 34.9841 53.7412 34.8507 53.5503 34.7617C53.3594 34.6728 53.0787 34.5728 52.7419 34.4616C52.3376 34.3282 52.0232 34.2059 51.7762 34.0948C51.5291 33.9836 51.327 33.8058 51.1586 33.5723C50.9902 33.3389 50.9004 33.0388 50.9004 32.6608C50.9004 32.3384 50.9789 32.0494 51.1361 31.7938C51.2933 31.5492 51.518 31.3491 51.8211 31.2157C52.1131 31.0823 52.4724 31.0156 52.8654 31.0156C53.4829 31.0156 53.9882 31.1601 54.3475 31.4603C54.718 31.7604 54.9202 32.1384 54.9875 32.6052H54.1117C54.0668 32.3607 53.932 32.1384 53.7299 31.9494C53.5166 31.7604 53.2359 31.6604 52.8766 31.6604C52.551 31.6604 52.2815 31.7493 52.0906 31.916C51.8885 32.0828 51.7986 32.3273 51.7986 32.6275C51.7986 32.872 51.866 33.0721 51.9895 33.2166C52.1243 33.3722 52.2814 33.4834 52.4723 33.5723C52.6632 33.6613 52.9327 33.7502 53.2583 33.8613C53.6625 33.9947 53.9882 34.117 54.2464 34.2393C54.4934 34.3616 54.7068 34.5394 54.8752 34.7729C55.0436 35.0063 55.1334 35.3287 55.1334 35.7288C55.111 36.0179 55.0437 36.2958 54.8977 36.5514Z" fill="#303030"/>
<path d="M62.341 31.0825V31.7384H60.5557V37.352H59.7248V31.7384H57.9395V31.0825H62.341Z" fill="#303030"/>
<path d="M66.1605 31.0825V34.8398C66.1605 35.4511 66.2952 35.9069 66.5759 36.207C66.8566 36.4961 67.2272 36.6517 67.7212 36.6517C68.204 36.6517 68.5746 36.5072 68.844 36.207C69.1135 35.9069 69.2483 35.4623 69.2483 34.8509V31.0936H70.068V34.8509C70.068 35.7068 69.8546 36.3515 69.4279 36.774C69.0013 37.2075 68.4286 37.4187 67.71 37.4187C67.0026 37.4187 66.43 37.2075 66.0033 36.774C65.5766 36.3404 65.3633 35.7068 65.3633 34.8509V31.0936H66.1605V31.0825Z" fill="#303030"/>
<path d="M78.5225 35.8736C78.2642 36.3404 77.8824 36.7073 77.3884 36.9629C76.8831 37.2186 76.288 37.352 75.5919 37.352H73.582V31.0825H75.5919C76.288 31.0825 76.8943 31.2048 77.3884 31.4605C77.8824 31.7161 78.2642 32.0719 78.5225 32.5498C78.7807 33.0278 78.9043 33.5725 78.9043 34.2173C78.9043 34.8509 78.7807 35.4067 78.5225 35.8736ZM77.4221 35.9958C77.86 35.5734 78.0734 34.9843 78.0734 34.2173C78.0734 33.4502 77.86 32.8611 77.4221 32.4387C76.9842 32.0163 76.3554 31.8051 75.5245 31.8051H74.3904V36.6294H75.5245C76.3442 36.6294 76.9842 36.4182 77.4221 35.9958Z" fill="#303030"/>
<path d="M83.0794 31.0825V37.352H82.2598V31.0825H83.0794Z" fill="#303030"/>
<path d="M91.1207 31.4162C91.5923 31.6941 91.9628 32.072 92.2323 32.5611C92.5018 33.0502 92.6365 33.606 92.6365 34.2174C92.6365 34.8288 92.5018 35.3846 92.2323 35.8737C91.9628 36.3628 91.5923 36.7408 91.1207 37.0187C90.6491 37.2966 90.1213 37.43 89.5375 37.43C88.9536 37.43 88.4146 37.2966 87.9431 37.0187C87.4715 36.7408 87.0897 36.3628 86.8202 35.8737C86.5507 35.3846 86.416 34.8288 86.416 34.2174C86.416 33.606 86.5507 33.0502 86.8202 32.5611C87.0897 32.072 87.4602 31.6941 87.9431 31.4162C88.4259 31.1383 88.9536 31.0049 89.5375 31.0049C90.1213 31.0049 90.6491 31.1383 91.1207 31.4162ZM88.3585 32.0609C88.0104 32.261 87.741 32.5389 87.5501 32.9168C87.3592 33.2837 87.2581 33.7172 87.2581 34.2174C87.2581 34.7065 87.3592 35.1401 87.5501 35.518C87.741 35.896 88.0104 36.1739 88.3585 36.374C88.7066 36.574 89.0883 36.6741 89.5262 36.6741C89.9529 36.6741 90.3459 36.574 90.694 36.374C91.0421 36.1739 91.3116 35.8848 91.5024 35.518C91.6933 35.1512 91.7944 34.7177 91.7944 34.2285C91.7944 33.7283 91.6933 33.2948 91.5024 32.928C91.3116 32.5611 91.0421 32.2721 90.694 32.072C90.3459 31.8719 89.9641 31.7719 89.5262 31.7719C89.0996 31.7608 88.7066 31.8608 88.3585 32.0609Z" fill="#303030"/>
</svg>
