<svg width="105" height="40" viewBox="0 0 105 40" fill="none" xmlns="http://www.w3.org/2000/svg">
<path d="M7.92 11.1236C8.28 11.7836 8.69 12.6036 9.15 13.5836C9.63 14.5436 10.12 15.5936 10.62 16.7336C11.14 17.8536 11.65 19.0036 12.15 20.1836C12.65 21.3636 13.12 22.4736 13.56 23.5136C14 22.4736 14.47 21.3636 14.97 20.1836C15.47 19.0036 15.97 17.8536 16.47 16.7336C16.99 15.5936 17.48 14.5436 17.94 13.5836C18.42 12.6036 18.84 11.7836 19.2 11.1236H23.46C23.66 12.5036 23.84 14.0536 24 15.7736C24.18 17.4736 24.33 19.2536 24.45 21.1136C24.59 22.9536 24.71 24.8036 24.81 26.6636C24.93 28.5236 25.03 30.2736 25.11 31.9136H20.55C20.49 29.8936 20.41 27.6936 20.31 25.3136C20.21 22.9336 20.06 20.5336 19.86 18.1136C19.5 18.9536 19.1 19.8836 18.66 20.9036C18.22 21.9236 17.78 22.9436 17.34 23.9636C16.92 24.9836 16.51 25.9636 16.11 26.9036C15.71 27.8236 15.37 28.6136 15.09 29.2736H11.82C11.54 28.6136 11.2 27.8236 10.8 26.9036C10.4 25.9636 9.98 24.9836 9.54 23.9636C9.12 22.9436 8.69 21.9236 8.25 20.9036C7.81 19.8836 7.41 18.9536 7.05 18.1136C6.85 20.5336 6.7 22.9336 6.6 25.3136C6.5 27.6936 6.42 29.8936 6.36 31.9136H1.8C1.88 30.2736 1.97 28.5236 2.07 26.6636C2.19 24.8036 2.31 22.9536 2.43 21.1136C2.57 19.2536 2.72 17.4736 2.88 15.7736C3.06 14.0536 3.25 12.5036 3.45 11.1236H7.92ZM35.0538 28.7936C35.4938 28.7936 35.9138 28.7836 36.3138 28.7636C36.7138 28.7436 37.0338 28.7136 37.2738 28.6736V25.2836C37.0938 25.2436 36.8238 25.2036 36.4638 25.1636C36.1038 25.1236 35.7738 25.1036 35.4738 25.1036C35.0538 25.1036 34.6538 25.1336 34.2738 25.1936C33.9138 25.2336 33.5938 25.3236 33.3138 25.4636C33.0338 25.6036 32.8138 25.7936 32.6538 26.0336C32.4938 26.2736 32.4138 26.5736 32.4138 26.9336C32.4138 27.6336 32.6438 28.1236 33.1038 28.4036C33.5838 28.6636 34.2338 28.7936 35.0538 28.7936ZM34.6938 15.7136C36.0138 15.7136 37.1138 15.8636 37.9938 16.1636C38.8738 16.4636 39.5738 16.8936 40.0938 17.4536C40.6338 18.0136 41.0138 18.6936 41.2338 19.4936C41.4538 20.2936 41.5638 21.1836 41.5638 22.1636V31.4636C40.9238 31.6036 40.0338 31.7636 38.8938 31.9436C37.7538 32.1436 36.3738 32.2436 34.7538 32.2436C33.7338 32.2436 32.8038 32.1536 31.9638 31.9736C31.1438 31.7936 30.4338 31.5036 29.8338 31.1036C29.2338 30.6836 28.7738 30.1436 28.4538 29.4836C28.1338 28.8236 27.9738 28.0136 27.9738 27.0536C27.9738 26.1336 28.1538 25.3536 28.5138 24.7136C28.8938 24.0736 29.3938 23.5636 30.0138 23.1836C30.6338 22.8036 31.3438 22.5336 32.1438 22.3736C32.9438 22.1936 33.7738 22.1036 34.6338 22.1036C35.2138 22.1036 35.7238 22.1336 36.1638 22.1936C36.6238 22.2336 36.9938 22.2936 37.2738 22.3736V21.9536C37.2738 21.1936 37.0438 20.5836 36.5838 20.1236C36.1238 19.6636 35.3238 19.4336 34.1838 19.4336C33.4238 19.4336 32.6738 19.4936 31.9338 19.6136C31.1938 19.7136 30.5538 19.8636 30.0138 20.0636L29.4438 16.4636C29.7038 16.3836 30.0238 16.3036 30.4038 16.2236C30.8038 16.1236 31.2338 16.0436 31.6938 15.9836C32.1538 15.9036 32.6338 15.8436 33.1338 15.8036C33.6538 15.7436 34.1738 15.7136 34.6938 15.7136ZM45.4559 12.2036L49.9259 11.4836V16.1336H55.2959V19.8536H49.9259V25.4036C49.9259 26.3436 50.0859 27.0936 50.4059 27.6536C50.7459 28.2136 51.4159 28.4936 52.4159 28.4936C52.8959 28.4936 53.3859 28.4536 53.8859 28.3736C54.4059 28.2736 54.8759 28.1436 55.2959 27.9836L55.9259 31.4636C55.3859 31.6836 54.7859 31.8736 54.1259 32.0336C53.4659 32.1936 52.6559 32.2736 51.6959 32.2736C50.4759 32.2736 49.4659 32.1136 48.6659 31.7936C47.8659 31.4536 47.2259 30.9936 46.7459 30.4136C46.2659 29.8136 45.9259 29.0936 45.7259 28.2536C45.5459 27.4136 45.4559 26.4836 45.4559 25.4636V12.2036ZM64.38 28.7936C64.82 28.7936 65.24 28.7836 65.64 28.7636C66.04 28.7436 66.36 28.7136 66.6 28.6736V25.2836C66.42 25.2436 66.15 25.2036 65.79 25.1636C65.43 25.1236 65.1 25.1036 64.8 25.1036C64.38 25.1036 63.98 25.1336 63.6 25.1936C63.24 25.2336 62.92 25.3236 62.64 25.4636C62.36 25.6036 62.14 25.7936 61.98 26.0336C61.82 26.2736 61.74 26.5736 61.74 26.9336C61.74 27.6336 61.97 28.1236 62.43 28.4036C62.91 28.6636 63.56 28.7936 64.38 28.7936ZM64.02 15.7136C65.34 15.7136 66.44 15.8636 67.32 16.1636C68.2 16.4636 68.9 16.8936 69.42 17.4536C69.96 18.0136 70.34 18.6936 70.56 19.4936C70.78 20.2936 70.89 21.1836 70.89 22.1636V31.4636C70.25 31.6036 69.36 31.7636 68.22 31.9436C67.08 32.1436 65.7 32.2436 64.08 32.2436C63.06 32.2436 62.13 32.1536 61.29 31.9736C60.47 31.7936 59.76 31.5036 59.16 31.1036C58.56 30.6836 58.1 30.1436 57.78 29.4836C57.46 28.8236 57.3 28.0136 57.3 27.0536C57.3 26.1336 57.48 25.3536 57.84 24.7136C58.22 24.0736 58.72 23.5636 59.34 23.1836C59.96 22.8036 60.67 22.5336 61.47 22.3736C62.27 22.1936 63.1 22.1036 63.96 22.1036C64.54 22.1036 65.05 22.1336 65.49 22.1936C65.95 22.2336 66.32 22.2936 66.6 22.3736V21.9536C66.6 21.1936 66.37 20.5836 65.91 20.1236C65.45 19.6636 64.65 19.4336 63.51 19.4336C62.75 19.4336 62 19.4936 61.26 19.6136C60.52 19.7136 59.88 19.8636 59.34 20.0636L58.77 16.4636C59.03 16.3836 59.35 16.3036 59.73 16.2236C60.13 16.1236 60.56 16.0436 61.02 15.9836C61.48 15.9036 61.96 15.8436 62.46 15.8036C62.98 15.7436 63.5 15.7136 64.02 15.7136Z" fill="#303030"/>
<path d="M93 33.9136V20.9701L83 11.9136V33.9136H93Z" fill="#303030"/>
<path d="M104.951 33.5997V20.8409L95.2949 11.9136V33.5997H104.951Z" fill="#303030"/>
</svg>
