<svg width="145" height="36" viewBox="0 0 145 36" fill="none" xmlns="http://www.w3.org/2000/svg">
<path d="M54.549 27.9136H49.932L42.21 16.1956V27.9136H37.593V8.82457H42.21L49.932 20.6506V8.82457H54.549V27.9136ZM64.7845 12.6586C66.2785 12.6586 67.6105 12.9736 68.7805 13.6036C69.9685 14.2156 70.8955 15.1066 71.5615 16.2766C72.2455 17.4466 72.5875 18.8146 72.5875 20.3806C72.5875 21.9466 72.2455 23.3146 71.5615 24.4846C70.8955 25.6546 69.9685 26.5546 68.7805 27.1846C67.6105 27.7966 66.2785 28.1026 64.7845 28.1026C63.2905 28.1026 61.9495 27.7966 60.7615 27.1846C59.5735 26.5546 58.6375 25.6546 57.9535 24.4846C57.2875 23.3146 56.9545 21.9466 56.9545 20.3806C56.9545 18.8146 57.2875 17.4466 57.9535 16.2766C58.6375 15.1066 59.5735 14.2156 60.7615 13.6036C61.9495 12.9736 63.2905 12.6586 64.7845 12.6586ZM64.7845 16.6546C63.9025 16.6546 63.1555 16.9786 62.5435 17.6266C61.9495 18.2566 61.6525 19.1746 61.6525 20.3806C61.6525 21.5866 61.9495 22.5046 62.5435 23.1346C63.1555 23.7646 63.9025 24.0796 64.7845 24.0796C65.6665 24.0796 66.4045 23.7646 66.9985 23.1346C67.5925 22.5046 67.8895 21.5866 67.8895 20.3806C67.8895 19.1746 67.5925 18.2566 66.9985 17.6266C66.4045 16.9786 65.6665 16.6546 64.7845 16.6546ZM73.6857 13.1446V8.82457H81.4077V27.9136H76.5477V13.1446H73.6857ZM98.732 8.63557C101.162 8.63557 103.169 9.27457 104.753 10.5526C106.355 11.8306 107.39 13.5586 107.858 15.7366H102.971C102.611 14.8546 102.053 14.1616 101.297 13.6576C100.559 13.1536 99.677 12.9016 98.651 12.9016C97.301 12.9016 96.212 13.3966 95.384 14.3866C94.556 15.3766 94.142 16.6996 94.142 18.3556C94.142 20.0116 94.556 21.3346 95.384 22.3246C96.212 23.2966 97.301 23.7826 98.651 23.7826C99.677 23.7826 100.559 23.5306 101.297 23.0266C102.053 22.5226 102.611 21.8386 102.971 20.9746H107.858C107.39 23.1346 106.355 24.8626 104.753 26.1586C103.169 27.4366 101.162 28.0756 98.732 28.0756C96.878 28.0756 95.249 27.6706 93.845 26.8606C92.441 26.0326 91.352 24.8806 90.578 23.4046C89.822 21.9286 89.444 20.2456 89.444 18.3556C89.444 16.4656 89.822 14.7826 90.578 13.3066C91.352 11.8306 92.441 10.6876 93.845 9.87757C95.249 9.04957 96.878 8.63557 98.732 8.63557ZM110.014 8.60857C110.014 7.90657 110.266 7.33057 110.77 6.88057C111.274 6.41257 111.94 6.17857 112.768 6.17857C113.596 6.17857 114.262 6.41257 114.766 6.88057C115.27 7.33057 115.522 7.90657 115.522 8.60857C115.522 9.29257 115.27 9.86857 114.766 10.3366C114.262 10.7866 113.596 11.0116 112.768 11.0116C111.94 11.0116 111.274 10.7866 110.77 10.3366C110.266 9.86857 110.014 9.29257 110.014 8.60857ZM115.063 12.8476V27.9136H110.446V12.8476H115.063ZM126.782 23.9446V27.9136H124.703C122.939 27.9136 121.562 27.4816 120.572 26.6176C119.6 25.7356 119.114 24.2866 119.114 22.2706V16.7356H117.089V12.8476H119.114V9.14857H123.731V12.8476H126.755V16.7356H123.731V22.3516C123.731 22.9456 123.848 23.3596 124.082 23.5936C124.334 23.8276 124.748 23.9446 125.324 23.9446H126.782ZM132.86 12.8476L136.478 22.0816L139.853 12.8476H144.956L135.56 35.0956H130.484L134.021 27.3466L127.703 12.8476H132.86Z" fill="#303030"/>
<rect y="3.91357" width="9" height="9" fill="white"/>
<rect y="12.9136" width="9" height="10" fill="#303030"/>
<rect y="22.9136" width="9" height="9" fill="#303030"/>
<rect x="9" y="3.91357" width="10" height="9" fill="#303030"/>
<rect x="9" y="22.9136" width="10" height="9" fill="#303030"/>
<rect x="19" y="3.91357" width="9" height="9" fill="#303030"/>
<rect x="19" y="12.9136" width="9" height="10" fill="#303030"/>
<rect x="19" y="22.9136" width="9" height="9" fill="white"/>
<rect x="5" y="8.91357" width="18" height="18" fill="#ECECEC"/>
</svg>
