<svg width="116" height="40" viewBox="0 0 116 40" fill="none" xmlns="http://www.w3.org/2000/svg">
<path d="M8.64 10.8836C11.74 10.8836 14.12 11.4336 15.78 12.5336C17.44 13.6136 18.27 15.3936 18.27 17.8736C18.27 20.3736 17.43 22.1836 15.75 23.3036C14.07 24.4036 11.67 24.9536 8.55 24.9536H7.08V31.9136H2.4V11.4236C3.42 11.2236 4.5 11.0836 5.64 11.0036C6.78 10.9236 7.78 10.8836 8.64 10.8836ZM8.94 14.8736C8.6 14.8736 8.26 14.8836 7.92 14.9036C7.6 14.9236 7.32 14.9436 7.08 14.9636V20.9636H8.55C10.17 20.9636 11.39 20.7436 12.21 20.3036C13.03 19.8636 13.44 19.0436 13.44 17.8436C13.44 17.2636 13.33 16.7836 13.11 16.4036C12.91 16.0236 12.61 15.7236 12.21 15.5036C11.83 15.2636 11.36 15.1036 10.8 15.0236C10.24 14.9236 9.62 14.8736 8.94 14.8736ZM30.9166 20.0936C30.5166 19.9936 30.0466 19.8936 29.5066 19.7936C28.9666 19.6736 28.3866 19.6136 27.7666 19.6136C27.4866 19.6136 27.1466 19.6436 26.7466 19.7036C26.3666 19.7436 26.0766 19.7936 25.8766 19.8536V31.9136H21.4066V16.9736C22.2066 16.6936 23.1466 16.4336 24.2266 16.1936C25.3266 15.9336 26.5466 15.8036 27.8866 15.8036C28.1266 15.8036 28.4166 15.8236 28.7566 15.8636C29.0966 15.8836 29.4366 15.9236 29.7766 15.9836C30.1166 16.0236 30.4566 16.0836 30.7966 16.1636C31.1366 16.2236 31.4266 16.3036 31.6666 16.4036L30.9166 20.0936ZM48.5299 23.9936C48.5299 25.2336 48.3499 26.3736 47.9899 27.4136C47.6299 28.4336 47.1099 29.3136 46.4299 30.0536C45.7499 30.7736 44.9299 31.3336 43.9699 31.7336C43.0299 32.1336 41.9699 32.3336 40.7899 32.3336C39.6299 32.3336 38.5699 32.1336 37.6099 31.7336C36.6699 31.3336 35.8599 30.7736 35.1799 30.0536C34.4999 29.3136 33.9699 28.4336 33.5899 27.4136C33.2099 26.3736 33.0199 25.2336 33.0199 23.9936C33.0199 22.7536 33.2099 21.6236 33.5899 20.6036C33.9899 19.5836 34.5299 18.7136 35.2099 17.9936C35.9099 17.2736 36.7299 16.7136 37.6699 16.3136C38.6299 15.9136 39.6699 15.7136 40.7899 15.7136C41.9299 15.7136 42.9699 15.9136 43.9099 16.3136C44.8699 16.7136 45.6899 17.2736 46.3699 17.9936C47.0499 18.7136 47.5799 19.5836 47.9599 20.6036C48.3399 21.6236 48.5299 22.7536 48.5299 23.9936ZM43.9699 23.9936C43.9699 22.6136 43.6899 21.5336 43.1299 20.7536C42.5899 19.9536 41.8099 19.5536 40.7899 19.5536C39.7699 19.5536 38.9799 19.9536 38.4199 20.7536C37.8599 21.5336 37.5799 22.6136 37.5799 23.9936C37.5799 25.3736 37.8599 26.4736 38.4199 27.2936C38.9799 28.0936 39.7699 28.4936 40.7899 28.4936C41.8099 28.4936 42.5899 28.0936 43.1299 27.2936C43.6899 26.4736 43.9699 25.3736 43.9699 23.9936ZM57.9626 28.3436C58.6226 28.3436 59.1626 28.2936 59.5826 28.1936C60.0226 28.0736 60.3726 27.9236 60.6326 27.7436C60.8926 27.5436 61.0726 27.3136 61.1726 27.0536C61.2726 26.7936 61.3226 26.5036 61.3226 26.1836C61.3226 25.5036 61.0026 24.9436 60.3626 24.5036C59.7226 24.0436 58.6226 23.5536 57.0626 23.0336C56.3826 22.7936 55.7026 22.5236 55.0226 22.2236C54.3426 21.9036 53.7326 21.5136 53.1926 21.0536C52.6526 20.5736 52.2126 20.0036 51.8726 19.3436C51.5326 18.6636 51.3626 17.8436 51.3626 16.8836C51.3626 15.9236 51.5426 15.0636 51.9026 14.3036C52.2626 13.5236 52.7726 12.8636 53.4326 12.3236C54.0926 11.7836 54.8926 11.3736 55.8326 11.0936C56.7726 10.7936 57.8326 10.6436 59.0126 10.6436C60.4126 10.6436 61.6226 10.7936 62.6426 11.0936C63.6626 11.3936 64.5026 11.7236 65.1626 12.0836L63.8126 15.7736C63.2326 15.4736 62.5826 15.2136 61.8626 14.9936C61.1626 14.7536 60.3126 14.6336 59.3126 14.6336C58.1926 14.6336 57.3826 14.7936 56.8826 15.1136C56.4026 15.4136 56.1626 15.8836 56.1626 16.5236C56.1626 16.9036 56.2526 17.2236 56.4326 17.4836C56.6126 17.7436 56.8626 17.9836 57.1826 18.2036C57.5226 18.4036 57.9026 18.5936 58.3226 18.7736C58.7626 18.9336 59.2426 19.1036 59.7626 19.2836C60.8426 19.6836 61.7826 20.0836 62.5826 20.4836C63.3826 20.8636 64.0426 21.3136 64.5626 21.8336C65.1026 22.3536 65.5026 22.9636 65.7626 23.6636C66.0226 24.3636 66.1526 25.2136 66.1526 26.2136C66.1526 28.1536 65.4726 29.6636 64.1126 30.7436C62.7526 31.8036 60.7026 32.3336 57.9626 32.3336C57.0426 32.3336 56.2126 32.2736 55.4726 32.1536C54.7326 32.0536 54.0726 31.9236 53.4926 31.7636C52.9326 31.6036 52.4426 31.4336 52.0226 31.2536C51.6226 31.0736 51.2826 30.9036 51.0026 30.7436L52.3226 27.0236C52.9426 27.3636 53.7026 27.6736 54.6026 27.9536C55.5226 28.2136 56.6426 28.3436 57.9626 28.3436ZM75.8351 28.7936C76.2751 28.7936 76.6951 28.7836 77.0951 28.7636C77.4951 28.7436 77.8151 28.7136 78.0551 28.6736V25.2836C77.8751 25.2436 77.6051 25.2036 77.2451 25.1636C76.8851 25.1236 76.5551 25.1036 76.2551 25.1036C75.8351 25.1036 75.4351 25.1336 75.0551 25.1936C74.6951 25.2336 74.3751 25.3236 74.0951 25.4636C73.8151 25.6036 73.5951 25.7936 73.4351 26.0336C73.2751 26.2736 73.1951 26.5736 73.1951 26.9336C73.1951 27.6336 73.4251 28.1236 73.8851 28.4036C74.3651 28.6636 75.0151 28.7936 75.8351 28.7936ZM75.4751 15.7136C76.7951 15.7136 77.8951 15.8636 78.7751 16.1636C79.6551 16.4636 80.3551 16.8936 80.8751 17.4536C81.4151 18.0136 81.7951 18.6936 82.0151 19.4936C82.2351 20.2936 82.3451 21.1836 82.3451 22.1636V31.4636C81.7051 31.6036 80.8151 31.7636 79.6751 31.9436C78.5351 32.1436 77.1551 32.2436 75.5351 32.2436C74.5151 32.2436 73.5851 32.1536 72.7451 31.9736C71.9251 31.7936 71.2151 31.5036 70.6151 31.1036C70.0151 30.6836 69.5551 30.1436 69.2351 29.4836C68.9151 28.8236 68.7551 28.0136 68.7551 27.0536C68.7551 26.1336 68.9351 25.3536 69.2951 24.7136C69.6751 24.0736 70.1751 23.5636 70.7951 23.1836C71.4151 22.8036 72.1251 22.5336 72.9251 22.3736C73.7251 22.1936 74.5551 22.1036 75.4151 22.1036C75.9951 22.1036 76.5051 22.1336 76.9451 22.1936C77.4051 22.2336 77.7751 22.2936 78.0551 22.3736V21.9536C78.0551 21.1936 77.8251 20.5836 77.3651 20.1236C76.9051 19.6636 76.1051 19.4336 74.9651 19.4336C74.2051 19.4336 73.4551 19.4936 72.7151 19.6136C71.9751 19.7136 71.3351 19.8636 70.7951 20.0636L70.2251 16.4636C70.4851 16.3836 70.8051 16.3036 71.1851 16.2236C71.5851 16.1236 72.0151 16.0436 72.4751 15.9836C72.9351 15.9036 73.4151 15.8436 73.9151 15.8036C74.4351 15.7436 74.9551 15.7136 75.4751 15.7136ZM92.4171 28.7936C92.8571 28.7936 93.2771 28.7836 93.6771 28.7636C94.0771 28.7436 94.3971 28.7136 94.6371 28.6736V25.2836C94.4571 25.2436 94.1871 25.2036 93.8271 25.1636C93.4671 25.1236 93.1371 25.1036 92.8371 25.1036C92.4171 25.1036 92.0171 25.1336 91.6371 25.1936C91.2771 25.2336 90.9571 25.3236 90.6771 25.4636C90.3971 25.6036 90.1771 25.7936 90.0171 26.0336C89.8571 26.2736 89.7771 26.5736 89.7771 26.9336C89.7771 27.6336 90.0071 28.1236 90.4671 28.4036C90.9471 28.6636 91.5971 28.7936 92.4171 28.7936ZM92.0571 15.7136C93.3771 15.7136 94.4771 15.8636 95.3571 16.1636C96.2371 16.4636 96.9371 16.8936 97.4571 17.4536C97.9971 18.0136 98.3771 18.6936 98.5971 19.4936C98.8171 20.2936 98.9271 21.1836 98.9271 22.1636V31.4636C98.2871 31.6036 97.3971 31.7636 96.2571 31.9436C95.1171 32.1436 93.7371 32.2436 92.1171 32.2436C91.0971 32.2436 90.1671 32.1536 89.3271 31.9736C88.5071 31.7936 87.7971 31.5036 87.1971 31.1036C86.5971 30.6836 86.1371 30.1436 85.8171 29.4836C85.4971 28.8236 85.3371 28.0136 85.3371 27.0536C85.3371 26.1336 85.5171 25.3536 85.8771 24.7136C86.2571 24.0736 86.7571 23.5636 87.3771 23.1836C87.9971 22.8036 88.7071 22.5336 89.5071 22.3736C90.3071 22.1936 91.1371 22.1036 91.9971 22.1036C92.5771 22.1036 93.0871 22.1336 93.5271 22.1936C93.9871 22.2336 94.3571 22.2936 94.6371 22.3736V21.9536C94.6371 21.1936 94.4071 20.5836 93.9471 20.1236C93.4871 19.6636 92.6871 19.4336 91.5471 19.4336C90.7871 19.4336 90.0371 19.4936 89.2971 19.6136C88.5571 19.7136 87.9171 19.8636 87.3771 20.0636L86.8071 16.4636C87.0671 16.3836 87.3871 16.3036 87.7671 16.2236C88.1671 16.1236 88.5971 16.0436 89.0571 15.9836C89.5171 15.9036 89.9971 15.8436 90.4971 15.8036C91.0171 15.7436 91.5371 15.7136 92.0571 15.7136ZM107.499 28.7036C108.319 28.7036 108.899 28.6236 109.239 28.4636C109.579 28.3036 109.749 27.9936 109.749 27.5336C109.749 27.1736 109.529 26.8636 109.089 26.6036C108.649 26.3236 107.979 26.0136 107.079 25.6736C106.379 25.4136 105.739 25.1436 105.159 24.8636C104.599 24.5836 104.119 24.2536 103.719 23.8736C103.319 23.4736 103.009 23.0036 102.789 22.4636C102.569 21.9236 102.459 21.2736 102.459 20.5136C102.459 19.0336 103.009 17.8636 104.109 17.0036C105.209 16.1436 106.719 15.7136 108.639 15.7136C109.599 15.7136 110.519 15.8036 111.399 15.9836C112.279 16.1436 112.979 16.3236 113.499 16.5236L112.719 20.0036C112.199 19.8236 111.629 19.6636 111.009 19.5236C110.409 19.3836 109.729 19.3136 108.969 19.3136C107.569 19.3136 106.869 19.7036 106.869 20.4836C106.869 20.6636 106.899 20.8236 106.959 20.9636C107.019 21.1036 107.139 21.2436 107.319 21.3836C107.499 21.5036 107.739 21.6436 108.039 21.8036C108.359 21.9436 108.759 22.1036 109.239 22.2836C110.219 22.6436 111.029 23.0036 111.669 23.3636C112.309 23.7036 112.809 24.0836 113.169 24.5036C113.549 24.9036 113.809 25.3536 113.949 25.8536C114.109 26.3536 114.189 26.9336 114.189 27.5936C114.189 29.1536 113.599 30.3336 112.419 31.1336C111.259 31.9336 109.609 32.3336 107.469 32.3336C106.069 32.3336 104.899 32.2136 103.959 31.9736C103.039 31.7336 102.399 31.5336 102.039 31.3736L102.789 27.7436C103.549 28.0436 104.329 28.2836 105.129 28.4636C105.929 28.6236 106.719 28.7036 107.499 28.7036Z" fill="#303030"/>
</svg>
