<svg width="114" height="36" viewBox="0 0 114 36" fill="none" xmlns="http://www.w3.org/2000/svg">
<path d="M32.5967 17.106C32.6582 16.5083 32.689 15.8228 32.689 15.0493C32.689 13.8188 32.623 12.2896 32.4912 10.4614C34.1348 10.5142 36.9165 10.5405 40.8364 10.5405C44.7563 10.5405 47.5293 10.5142 49.1553 10.4614C49.0234 12.2896 48.9575 13.8188 48.9575 15.0493C48.9575 15.8228 48.9883 16.5083 49.0498 17.106H48.4302C48.1313 15.603 47.7666 14.4165 47.3359 13.5464C46.9053 12.6675 46.3867 12.0391 45.7803 11.6611C45.1826 11.2744 44.4531 11.0811 43.5918 11.0811H42.9722V26.5059C42.9722 27.2529 43.0469 27.7979 43.1963 28.1406C43.3545 28.4834 43.627 28.7163 44.0137 28.8394C44.4092 28.9624 45.0244 29.0283 45.8594 29.0371V29.5776C43.5918 29.5249 41.8823 29.4985 40.731 29.4985C39.5972 29.4985 37.9492 29.5249 35.7871 29.5776V29.0371C36.6309 29.0283 37.2461 28.9624 37.6328 28.8394C38.0283 28.7163 38.3008 28.4834 38.4502 28.1406C38.5996 27.7979 38.6743 27.2529 38.6743 26.5059V11.0811H38.0811C37.2109 11.0811 36.4727 11.27 35.8662 11.6479C35.2686 12.0259 34.7544 12.6543 34.3237 13.5332C33.8931 14.4033 33.5239 15.5942 33.2163 17.106H32.5967ZM57.2632 18.187C57.2632 17.4399 57.083 16.8511 56.7227 16.4204C56.3711 15.9897 55.8174 15.7744 55.0615 15.7744C54.71 15.7744 54.3584 15.8315 54.0068 15.9458C53.6553 16.0513 53.3652 16.2139 53.1367 16.4336C53.6377 16.6006 54.0288 16.8643 54.3101 17.2246C54.5913 17.5762 54.7319 18.02 54.7319 18.5562C54.7319 18.9253 54.6396 19.2593 54.4551 19.5581C54.2793 19.8481 54.0244 20.0811 53.6904 20.2568C53.3564 20.4238 52.9741 20.5073 52.5435 20.5073C51.9634 20.5073 51.4976 20.3096 51.146 19.9141C50.8032 19.5186 50.6318 19.022 50.6318 18.4243C50.6318 17.4927 51.1328 16.7368 52.1348 16.1567C53.2334 15.5503 54.6045 15.2471 56.248 15.2471C58.0938 15.2471 59.4077 15.6514 60.1899 16.46C60.5679 16.8379 60.8228 17.3081 60.9546 17.8706C61.0864 18.4331 61.1523 19.2197 61.1523 20.2305V27.5737C61.1523 28.0132 61.1919 28.3252 61.271 28.5098C61.3589 28.6855 61.5083 28.7734 61.7192 28.7734C62.0093 28.7734 62.3433 28.6196 62.7212 28.312L62.998 28.7734C62.585 29.1162 62.1367 29.3667 61.6533 29.5249C61.1699 29.6831 60.5898 29.7622 59.9131 29.7622C58.999 29.7622 58.3398 29.5601 57.9355 29.1558C57.5312 28.7515 57.3291 28.2241 57.3291 27.5737C56.8896 28.3032 56.314 28.8525 55.6021 29.2217C54.8901 29.582 54.1299 29.7622 53.3213 29.7622C52.293 29.7622 51.4668 29.4941 50.8428 28.958C50.2275 28.4131 49.9199 27.6572 49.9199 26.6904C49.9199 25.75 50.2275 24.9722 50.8428 24.3569C51.458 23.7417 52.4116 23.1968 53.7036 22.7222C53.8442 22.6694 54.3013 22.498 55.0747 22.208C55.8481 21.9092 56.4062 21.606 56.749 21.2983C57.0918 20.9907 57.2632 20.6523 57.2632 20.2832V18.187ZM57.2632 21.3906C57.1489 21.584 56.96 21.7861 56.6963 21.9971C56.4414 22.1992 56.0723 22.4497 55.5889 22.7485C55.0176 23.144 54.5693 23.5923 54.2441 24.0933C53.9189 24.5854 53.7563 25.2007 53.7563 25.939C53.7563 26.6421 53.9102 27.1694 54.2178 27.521C54.5254 27.8638 54.9297 28.0352 55.4307 28.0352C56.1426 28.0352 56.7534 27.666 57.2632 26.9277V21.3906ZM69.4053 17.8311C69.748 17.0664 70.2402 16.4468 70.8818 15.9722C71.5322 15.4888 72.2661 15.2471 73.0835 15.2471C73.6284 15.2471 74.0854 15.3657 74.4546 15.603C74.8237 15.8403 75.0962 16.1479 75.272 16.5259C75.4478 16.895 75.5356 17.2949 75.5356 17.7256C75.5356 18.3936 75.3423 18.9385 74.9556 19.3604C74.5688 19.7822 74.0591 19.9932 73.4263 19.9932C72.811 19.9932 72.3232 19.8394 71.9629 19.5317C71.6113 19.2153 71.4355 18.7935 71.4355 18.2661C71.4355 17.4048 71.8311 16.7017 72.6221 16.1567C72.5078 16.1304 72.3979 16.1172 72.2925 16.1172C72.1694 16.1172 72.0288 16.1392 71.8706 16.1831C71.4136 16.2534 70.9961 16.4731 70.6182 16.8423C70.2402 17.2026 69.9414 17.6377 69.7217 18.1475C69.5107 18.6572 69.4053 19.1538 69.4053 19.6372V26.7959C69.4053 27.6309 69.6074 28.2109 70.0117 28.5361C70.416 28.8525 71.062 29.0107 71.9497 29.0107V29.5776C69.6997 29.5073 68.2671 29.4722 67.6519 29.4722C67.0806 29.4722 65.793 29.5073 63.7891 29.5776V29.0107C64.2197 29.0107 64.5581 28.9536 64.8042 28.8394C65.0591 28.7251 65.2393 28.5273 65.3447 28.2461C65.459 27.9648 65.5161 27.5737 65.5161 27.0728V18.5562C65.5161 17.7212 65.3887 17.1191 65.1338 16.75C64.8789 16.3721 64.4307 16.1831 63.7891 16.1831V15.6162C64.3604 15.6689 64.9185 15.6953 65.4634 15.6953C67.0542 15.6953 68.3682 15.5723 69.4053 15.3262V17.8311ZM86.4385 26.1235C87.5195 26.1235 88.394 26.3521 89.062 26.8091C89.7388 27.2573 90.0771 27.9912 90.0771 29.0107C90.0771 29.9336 89.7871 30.8257 89.207 31.687C88.627 32.5571 87.748 33.269 86.5703 33.8228C85.3926 34.3765 83.9556 34.6533 82.2593 34.6533C80.9409 34.6533 79.8335 34.5479 78.937 34.3369C78.0493 34.1348 77.3857 33.8579 76.9463 33.5063C76.5068 33.1548 76.2871 32.7549 76.2871 32.3066C76.2871 31.8232 76.4673 31.4629 76.8276 31.2256C77.1968 30.9883 77.7944 30.7378 78.6206 30.4741C79.4468 30.2104 80.0312 29.9556 80.374 29.7095H79.7412C78.9941 29.7095 78.3042 29.5293 77.6714 29.1689C77.0386 28.8086 76.7222 28.1538 76.7222 27.2046C76.7222 26.686 76.8276 26.2202 77.0386 25.8071C77.2583 25.3853 77.6143 24.9854 78.1064 24.6074C78.6074 24.2207 79.2798 23.8252 80.1235 23.4209C79.2007 23.1045 78.48 22.6255 77.9614 21.9839C77.4429 21.3335 77.1836 20.5161 77.1836 19.5317C77.1836 18.1079 77.7109 17.04 78.7656 16.3281C79.8291 15.6074 81.2354 15.2471 82.9844 15.2471C83.7051 15.2471 84.373 15.3086 84.9883 15.4316C84.9619 14.9746 84.9971 14.522 85.0938 14.0737C85.1816 13.3267 85.4365 12.729 85.8584 12.2808C86.2803 11.8237 86.8779 11.5952 87.6514 11.5952C88.2227 11.5952 88.6929 11.749 89.062 12.0566C89.4399 12.3555 89.6289 12.751 89.6289 13.2432C89.6289 13.7002 89.4487 14.0781 89.0884 14.377C88.7368 14.667 88.293 14.812 87.7568 14.812C87.2119 14.812 86.7856 14.6846 86.478 14.4297C86.1704 14.1748 85.9331 13.7969 85.7661 13.2959C85.5728 13.6211 85.4365 14.0825 85.3574 14.6802C85.3486 14.7681 85.3442 14.8999 85.3442 15.0757C85.3442 15.269 85.3486 15.4141 85.3574 15.5107C86.4297 15.7832 87.269 16.2578 87.8755 16.9346C88.4819 17.6025 88.7852 18.4683 88.7852 19.5317C88.7852 20.4897 88.5347 21.2896 88.0337 21.9312C87.5415 22.5728 86.8604 23.0518 85.9902 23.3682C85.1201 23.6758 84.1182 23.8296 82.9844 23.8296C82.1318 23.8296 81.354 23.7417 80.6509 23.5659C80.1323 23.8647 79.7456 24.1372 79.4907 24.3833C79.2446 24.6294 79.1216 24.9106 79.1216 25.2271C79.1216 25.8247 79.4819 26.1235 80.2026 26.1235H86.4385ZM82.9844 15.7217C82.3955 15.7217 81.9473 16.0117 81.6396 16.5918C81.332 17.1719 81.1782 18.1519 81.1782 19.5317C81.1782 20.9116 81.332 21.8916 81.6396 22.4717C81.9473 23.0518 82.3955 23.3418 82.9844 23.3418C83.582 23.3418 84.0303 23.0518 84.3291 22.4717C84.6367 21.8916 84.7905 20.9116 84.7905 19.5317C84.7905 18.1519 84.6367 17.1719 84.3291 16.5918C84.0303 16.0117 83.582 15.7217 82.9844 15.7217ZM80.8882 29.7095C80.5894 29.9907 80.3564 30.3379 80.1895 30.751C80.0312 31.1641 79.9521 31.5376 79.9521 31.8716C79.9521 32.6187 80.2334 33.1899 80.7959 33.5854C81.3672 33.9897 82.0967 34.1919 82.9844 34.1919C83.7139 34.1919 84.3906 34.0557 85.0146 33.7832C85.6475 33.5195 86.1484 33.1328 86.5176 32.623C86.8955 32.1133 87.0845 31.52 87.0845 30.8433C87.0845 30.4565 86.9702 30.1709 86.7417 29.9863C86.5132 29.8018 86.1045 29.7095 85.5156 29.7095H80.8882ZM95.522 21.2324C95.4956 21.4961 95.4824 21.918 95.4824 22.498C95.4824 23.6934 95.6494 24.6865 95.9834 25.4775C96.3174 26.2598 96.748 26.8354 97.2754 27.2046C97.8115 27.5649 98.3828 27.7451 98.9893 27.7451C100.475 27.7451 101.666 27.0244 102.562 25.583L103.037 25.7412C102.808 26.4795 102.452 27.1694 101.969 27.811C101.494 28.4438 100.888 28.9624 100.149 29.3667C99.4199 29.7622 98.585 29.96 97.6445 29.96C96.4053 29.96 95.3154 29.6963 94.375 29.1689C93.4434 28.6416 92.7139 27.8418 92.1865 26.7695C91.668 25.6885 91.4087 24.3481 91.4087 22.7485C91.4087 21.1138 91.6899 19.7383 92.2524 18.6221C92.8149 17.4971 93.5928 16.6533 94.5859 16.0908C95.5791 15.5283 96.7261 15.2471 98.0269 15.2471C101.411 15.2471 103.103 17.2422 103.103 21.2324H95.522ZM99.7012 20.7183C99.7275 19.312 99.5825 18.1431 99.2661 17.2114C98.9585 16.2798 98.4883 15.814 97.8555 15.814C97.2139 15.814 96.6777 16.2139 96.2471 17.0137C95.8252 17.8047 95.5659 19.0396 95.4692 20.7183H99.7012ZM113.346 15.6426V16.1831H110.156V27.0728C110.156 27.6089 110.252 27.9912 110.446 28.2197C110.639 28.4395 110.938 28.5493 111.342 28.5493C112.107 28.5493 112.718 28.0088 113.175 26.9277L113.636 27.1782C112.959 29.0327 111.729 29.96 109.945 29.96C108.758 29.96 107.857 29.6523 107.242 29.0371C106.864 28.668 106.605 28.2021 106.464 27.6396C106.333 27.0684 106.267 26.2817 106.267 25.2798V16.1831H103.999V15.6426H106.267V12.0566C107.752 12.0566 109.048 11.7666 110.156 11.1865V15.6426H113.346Z" fill="#303030"/>
<rect x="0.832031" y="5.57764" width="26" height="26" rx="5" fill="#303030"/>
<circle cx="13.832" cy="18.5776" r="5" fill="#303030"/>
<path d="M13.832 12.9776V11.5776M13.832 25.5776V24.1776M19.432 18.5776H20.832M6.83203 18.5776H8.23203M13.832 13.5376C12.8352 13.5376 11.8608 13.8332 11.032 14.387C10.2031 14.9408 9.55714 15.728 9.17568 16.6489C8.79421 17.5699 8.6944 18.5832 8.88887 19.5609C9.08334 20.5386 9.56336 21.4366 10.2682 22.1415C10.9731 22.8463 11.8711 23.3263 12.8488 23.5208C13.8264 23.7153 14.8398 23.6155 15.7608 23.234C16.6817 22.8525 17.4688 22.2065 18.0226 21.3777C18.5764 20.5489 18.872 19.5745 18.872 18.5776C18.872 17.2409 18.341 15.959 17.3958 15.0138C16.4507 14.0686 15.1687 13.5376 13.832 13.5376Z" stroke="white" stroke-width="2" stroke-linecap="square" stroke-linejoin="round"/>
</svg>
