<svg width="118" height="41" viewBox="0 0 118 41" fill="none" xmlns="http://www.w3.org/2000/svg">
<path d="M0.467773 32.4449C3.52537 33.711 6.64109 34.6893 9.81494 35.4374C12.9655 36.2201 16.1743 36.7725 19.383 37.1178C20.9874 37.3365 22.6034 37.3595 24.1961 37.5091C25.8121 37.5207 27.4165 37.6473 29.0208 37.5552L31.4274 37.4976C32.2296 37.4861 33.0317 37.3825 33.8339 37.3365C34.6361 37.2674 35.4383 37.2329 36.2288 37.1293L38.6121 36.7956C41.8092 36.4503 44.9134 35.7137 48.0058 34.8274C51.1332 33.9757 54.0861 32.8478 57.2135 31.6738C60.4106 30.5113 63.8751 29.7517 67.3861 30.12C69.1183 30.3387 70.8622 30.8911 72.2806 31.904C73.7106 32.9053 74.7336 34.3325 75.3847 35.8287C74.4081 34.4936 73.1874 33.4002 71.7807 32.7212C70.3739 32.0421 68.8277 31.7659 67.2931 31.8119C64.189 31.8579 61.1314 32.8823 58.2598 34.1714C55.3417 35.5986 52.1795 36.8876 48.994 37.958C45.7853 38.9824 42.4719 39.7996 39.112 40.2139C32.4272 41.0886 25.5796 41.1001 18.9761 39.7765C15.6627 39.178 12.4308 38.2458 9.3034 37.0603C6.1993 35.8287 3.16497 34.3901 0.467773 32.4449Z" fill="#303030"/>
<path d="M5.02353 22V9.09894H0.778393V6.73823H11.8572V9.09894H7.61202V22H5.02353ZM13.7788 22L11.4802 19.7014V13.489L13.7788 11.1697H18.7487L21.0473 13.489V17.5064H13.9859V19.0388L14.897 19.9499H20.8609V22H13.7788ZM13.9859 15.5805H18.5416V14.0274L17.6305 13.1163H14.897L13.9859 14.0274V15.5805ZM26.0337 22L23.7351 19.7014V13.489L26.0337 11.1697H31.2107L33.2815 13.1991V15.2285H30.7758V14.0274L29.8647 13.1163H27.1519L26.2408 14.0274V19.0388L27.1519 19.9499H33.1987V22H26.0337ZM35.7724 22V6.73823H38.2781V12.7642L39.8726 11.1697H43.745L46.0436 13.489V22H43.5379V14.0688L42.6682 13.1163H40.4938L38.2781 15.3113V22H35.7724ZM54.0561 22V6.73823H56.6446V12.8678H63.3333V6.73823H65.9218V22H63.3333V15.1457H56.6446V22H54.0561ZM71.2313 22L68.9327 19.7014V13.489L71.2313 11.1697H76.6568L78.9553 13.489V19.7014L76.6568 22H71.2313ZM72.3495 20.0742L75.5385 20.0535L76.4497 19.1423V14.0274L75.5385 13.1163H72.3495L71.4383 14.0274V19.1423L72.3495 20.0742ZM84.0548 22L81.7562 19.7014V11.1697H84.2619V19.1009L85.1316 20.0535H87.2231L89.4182 17.8998V11.1697H91.9239V22H89.4182V20.4469L87.8444 22H84.0548ZM95.1697 22V19.9499H100.844L101.672 19.1009V18.3968L100.699 17.4235H96.6814L94.5691 15.3527V13.2612L96.6399 11.1697H103.018V13.2198H97.8824L97.0748 14.0274V14.5037L98.0067 15.4356H102.065L104.178 17.5064V19.9292L102.107 22H95.1697ZM108.764 22L106.466 19.7014V13.489L108.764 11.1697H113.734L116.033 13.489V17.5064H108.972V19.0388L109.883 19.9499H115.847V22H108.764ZM108.972 15.5805H113.527V14.0274L112.616 13.1163H109.883L108.972 14.0274V15.5805Z" fill="#303030"/>
</svg>
